<?xml version="1.0" encoding="UTF-8"?>
<!DOCTYPE svg PUBLIC "-//W3C//DTD SVG 1.1//EN" "http://www.w3.org/Graphics/SVG/1.1/DTD/svg11.dtd">
<svg xmlns="http://www.w3.org/2000/svg" version="1.1" width="1536px" height="595px" style="shape-rendering:geometricPrecision; text-rendering:geometricPrecision; image-rendering:optimizeQuality; fill-rule:evenodd; clip-rule:evenodd" xmlns:xlink="http://www.w3.org/1999/xlink">
<g><path style="opacity:1" fill="#fdfdfd" d="M 1098.5,2.5 C 1099.5,2.5 1100.5,2.5 1101.5,2.5C 1097.58,7.92755 1093.08,12.9276 1088,17.5C 1086.58,19.4048 1085.41,21.4048 1084.5,23.5C 1083.83,24.8333 1082.83,25.8333 1081.5,26.5C 1078.19,27.8114 1075.86,30.1447 1074.5,33.5C 1071.56,38.1053 1067.9,42.1053 1063.5,45.5C 1061.41,46.5846 1060.08,48.2512 1059.5,50.5C 1058.76,50.369 1058.09,50.5357 1057.5,51C 1055,54.3325 1052.33,57.4992 1049.5,60.5C 1048.5,62.1667 1047.17,63.5 1045.5,64.5C 1044.09,64.9731 1043.43,65.9731 1043.5,67.5C 1040.5,71.1667 1037.17,74.5 1033.5,77.5C 1032.17,78.1667 1031.17,79.1667 1030.5,80.5C 1029.83,81.8333 1028.83,82.8333 1027.5,83.5C 1025.95,83.8212 1025.29,84.8212 1025.5,86.5C 1025.5,87.1667 1025.17,87.5 1024.5,87.5C 1014.13,96.8657 1004.47,106.866 995.5,117.5C 995.5,118.167 995.167,118.5 994.5,118.5C 992.844,120.46 991.177,122.46 989.5,124.5C 987.833,126.833 985.833,128.833 983.5,130.5C 971.194,143.14 958.861,155.807 946.5,168.5C 945.5,169.833 944.5,171.167 943.5,172.5C 938.285,176.204 933.452,180.538 929,185.5C 923.934,191.059 919.1,196.725 914.5,202.5C 910.229,205.101 906.563,208.434 903.5,212.5C 902.833,213.5 902.167,214.5 901.5,215.5C 900.094,215.973 899.427,216.973 899.5,218.5C 899.5,219.167 899.167,219.5 898.5,219.5C 895.981,219.848 894.147,221.181 893,223.5C 892.409,224.483 892.743,225.15 894,225.5C 894.765,225.43 895.265,225.097 895.5,224.5C 897.915,224.373 900.249,224.207 902.5,224C 901.177,224.816 900.511,225.983 900.5,227.5C 895.226,231.105 890.559,235.438 886.5,240.5C 882.833,243.5 879.5,246.833 876.5,250.5C 869.803,256.196 863.803,262.53 858.5,269.5C 858.167,270.5 857.5,271.167 856.5,271.5C 854.629,271.859 853.129,272.859 852,274.5C 851.819,271.305 851.319,268.305 850.5,265.5C 839.219,275.113 828.553,285.446 818.5,296.5C 817.167,298.5 815.5,300.167 813.5,301.5C 812.763,284.97 814.096,268.637 817.5,252.5C 817.5,252.167 817.5,251.833 817.5,251.5C 818.117,251.389 818.617,251.056 819,250.5C 820.766,243.718 822.599,237.051 824.5,230.5C 826.417,227.669 828.083,224.669 829.5,221.5C 829.66,219.847 830.326,218.514 831.5,217.5C 834.662,213.847 837.328,209.847 839.5,205.5C 843.161,202.835 846.161,199.502 848.5,195.5C 855.254,189.401 862.254,183.734 869.5,178.5C 871.291,177.517 872.791,176.184 874,174.5C 874.383,175.056 874.883,175.389 875.5,175.5C 883.698,172.332 891.698,168.999 899.5,165.5C 913.14,163.463 926.806,162.63 940.5,163C 945.703,157.965 950.703,152.798 955.5,147.5C 956.5,145.833 957.833,144.5 959.5,143.5C 973.085,129.58 986.751,115.58 1000.5,101.5C 1011.3,91.7006 1021.3,81.3672 1030.5,70.5C 1050.13,50.0336 1070.3,30.0336 1091,10.5C 1091.51,9.47344 1092.01,8.47344 1092.5,7.5C 1095.09,6.58062 1097.09,4.91395 1098.5,2.5 Z"/></g>
<g><path style="opacity:0.918" fill="#aeaeae" d="M 1098.5,2.5 C 1097.09,4.91395 1095.09,6.58062 1092.5,7.5C 1093.91,5.08605 1095.91,3.41938 1098.5,2.5 Z"/></g>
<g><path style="opacity:0.302" fill="#9c9c9c" d="M 1101.5,2.5 C 1102.46,3.72105 1102.3,5.05439 1101,6.5C 1095.27,12.0619 1089.77,17.7286 1084.5,23.5C 1085.41,21.4048 1086.58,19.4048 1088,17.5C 1093.08,12.9276 1097.58,7.92755 1101.5,2.5 Z"/></g>
<g><path style="opacity:0.898" fill="#a5a5a5" d="M 1092.5,7.5 C 1092.01,8.47344 1091.51,9.47344 1091,10.5C 1070.3,30.0336 1050.13,50.0336 1030.5,70.5C 1038.77,61.0571 1047.27,51.7238 1056,42.5C 1068.39,30.945 1080.55,19.2783 1092.5,7.5 Z"/></g>
<g><path style="opacity:0.302" fill="#999999" d="M 1081.5,26.5 C 1080.04,28.4628 1078.37,30.2962 1076.5,32C 1076.83,32.3333 1077.17,32.6667 1077.5,33C 1076.55,33.4828 1075.55,33.6495 1074.5,33.5C 1075.86,30.1447 1078.19,27.8114 1081.5,26.5 Z"/></g>
<g><path style="opacity:0.098" fill="#909090" d="M 1063.5,45.5 C 1062.92,47.7488 1061.59,49.4154 1059.5,50.5C 1060.08,48.2512 1061.41,46.5846 1063.5,45.5 Z"/></g>
<g><path style="opacity:0.039" fill="#898989" d="M 1059.5,50.5 C 1057.15,54.8548 1053.81,58.1881 1049.5,60.5C 1052.33,57.4992 1055,54.3325 1057.5,51C 1058.09,50.5357 1058.76,50.369 1059.5,50.5 Z"/></g>
<g><path style="opacity:0.361" fill="#929292" d="M 1045.5,64.5 C 1045.57,66.0269 1044.91,67.0269 1043.5,67.5C 1043.43,65.9731 1044.09,64.9731 1045.5,64.5 Z"/></g>
<g><path style="opacity:0.008" fill="#868686" d="M 1033.5,77.5 C 1033.5,79.5 1032.5,80.5 1030.5,80.5C 1031.17,79.1667 1032.17,78.1667 1033.5,77.5 Z"/></g>
<g><path style="opacity:0.906" fill="#b8b8b8" d="M 1027.5,83.5 C 1027.07,84.7095 1026.4,85.7095 1025.5,86.5C 1025.29,84.8212 1025.95,83.8212 1027.5,83.5 Z"/></g>
<g><path style="opacity:0.855" fill="#9f9f9f" d="M 1030.5,70.5 C 1021.3,81.3672 1011.3,91.7006 1000.5,101.5C 1006.45,94.2154 1012.78,87.2154 1019.5,80.5C 1020.39,79.675 1020.72,78.675 1020.5,77.5C 1023.78,75.2433 1027.11,72.9099 1030.5,70.5 Z"/></g>
<g><path style="opacity:0.063" fill="#8a8a8a" d="M 1024.5,87.5 C 1019.57,93.6083 1014.4,99.6083 1009,105.5C 1004.91,110.102 1000.41,114.102 995.5,117.5C 1004.47,106.866 1014.13,96.8657 1024.5,87.5 Z"/></g>
<g><path style="opacity:0.063" fill="#8d8d8d" d="M 994.5,118.5 C 994.288,121.712 992.621,123.712 989.5,124.5C 991.177,122.46 992.844,120.46 994.5,118.5 Z"/></g>
<g><path style="opacity:0.054" fill="#868686" d="M 386.5,411.5 C 386.5,411.167 386.5,410.833 386.5,410.5C 387.499,315.668 387.833,220.668 387.5,125.5C 370.154,125.167 352.821,125.5 335.5,126.5C 334.663,129.507 333.33,132.174 331.5,134.5C 331.389,133.883 331.056,133.383 330.5,133C 332.902,130.297 334.235,127.13 334.5,123.5C 352.41,123.174 370.243,123.508 388,124.5C 388.167,172.333 388.333,220.167 388.5,268C 388.5,316.171 387.833,364.005 386.5,411.5 Z"/></g>
<g><path style="opacity:1" fill="#fdfdfd" d="M 386.5,410.5 C 365.5,410.5 344.5,410.5 323.5,410.5C 323.832,349.331 323.499,288.331 322.5,227.5C 298.672,226.502 274.672,226.169 250.5,226.5C 250.5,212.833 250.5,199.167 250.5,185.5C 254.36,185.192 258.026,184.525 261.5,183.5C 270.205,182.926 278.705,181.259 287,178.5C 288.03,178.164 288.53,177.497 288.5,176.5C 289.222,176.082 289.722,175.416 290,174.5C 290.383,175.056 290.883,175.389 291.5,175.5C 308.743,168.921 321.077,157.254 328.5,140.5C 330.539,139.089 331.539,137.089 331.5,134.5C 333.33,132.174 334.663,129.507 335.5,126.5C 352.821,125.5 370.154,125.167 387.5,125.5C 387.833,220.668 387.499,315.668 386.5,410.5 Z"/></g>
<g><path style="opacity:0.757" fill="#9b9b9b" d="M 1000.5,101.5 C 986.751,115.58 973.085,129.58 959.5,143.5C 959.539,142.417 959.873,141.417 960.5,140.5C 973.186,126.814 986.519,113.814 1000.5,101.5 Z"/></g>
<g><path style="opacity:0.796" fill="#999999" d="M 331.5,134.5 C 331.539,137.089 330.539,139.089 328.5,140.5C 328.386,137.784 329.386,135.784 331.5,134.5 Z"/></g>
<g><path style="opacity:0.145" fill="#909090" d="M 983.5,130.5 C 978.232,136.942 972.732,143.275 967,149.5C 960.577,156.428 953.744,162.762 946.5,168.5C 958.861,155.807 971.194,143.14 983.5,130.5 Z"/></g>
<g><path style="opacity:0.729" fill="#9b9b9b" d="M 328.5,140.5 C 321.077,157.254 308.743,168.921 291.5,175.5C 291.937,173.926 292.937,172.759 294.5,172C 300.628,169.437 306.295,166.103 311.5,162C 318.236,155.459 323.902,148.292 328.5,140.5 Z"/></g>
<g><path style="opacity:0.35" fill="#8c8c8c" d="M 602.5,165.5 C 588.219,163.288 573.886,162.954 559.5,164.5C 560.609,163.71 561.942,163.21 563.5,163C 573.5,162.333 583.5,162.333 593.5,163C 596.797,163.204 599.797,164.037 602.5,165.5 Z"/></g>
<g><path style="opacity:0.35" fill="#8c8c8c" d="M 730.5,163.5 C 715.688,162.815 701.021,163.815 686.5,166.5C 690.48,164.529 694.813,163.362 699.5,163C 710.008,162.175 720.342,162.341 730.5,163.5 Z"/></g>
<g><path style="opacity:0.349" fill="#919191" d="M 955.5,147.5 C 950.703,152.798 945.703,157.965 940.5,163C 926.806,162.63 913.14,163.463 899.5,165.5C 902.942,164.252 906.608,163.419 910.5,163C 919.86,161.734 929.194,161.567 938.5,162.5C 943.909,157.083 949.576,152.083 955.5,147.5 Z"/></g>
<g><path style="opacity:1" fill="#fefefe" d="M 1178.5,162.5 C 1199.65,161.969 1219.98,165.635 1239.5,173.5C 1240.79,173.263 1241.79,173.596 1242.5,174.5C 1242.41,175.496 1242.75,176.329 1243.5,177C 1246.08,178.456 1248.74,179.623 1251.5,180.5C 1257.43,184.419 1263.09,188.752 1268.5,193.5C 1272.93,199.36 1277.6,205.026 1282.5,210.5C 1282.43,212.027 1283.09,213.027 1284.5,213.5C 1284.99,215.819 1285.99,217.819 1287.5,219.5C 1293.87,232.65 1298.53,246.316 1301.5,260.5C 1304.39,283.997 1303.39,307.331 1298.5,330.5C 1298.77,332.099 1298.43,333.432 1297.5,334.5C 1295.93,337.215 1294.93,340.215 1294.5,343.5C 1293.5,343.47 1292.84,343.97 1292.5,345C 1290.45,350.322 1288.12,355.489 1285.5,360.5C 1286.06,362.066 1285.39,363.399 1283.5,364.5C 1279.45,369.214 1275.79,374.214 1272.5,379.5C 1272.17,380.5 1271.5,381.167 1270.5,381.5C 1268.55,382.785 1266.88,384.451 1265.5,386.5C 1265.17,387.5 1264.5,388.167 1263.5,388.5C 1256.8,393.179 1250.13,397.846 1243.5,402.5C 1243.16,403.338 1242.49,403.672 1241.5,403.5C 1235.97,405.177 1230.63,407.344 1225.5,410C 1219.67,411.373 1214,412.873 1208.5,414.5C 1200.55,415.974 1192.38,416.64 1184,416.5C 1175.62,416.64 1167.45,415.974 1159.5,414.5C 1156.78,413.087 1153.78,412.42 1150.5,412.5C 1148.9,412.768 1147.57,412.434 1146.5,411.5C 1141.65,408.546 1136.32,406.546 1130.5,405.5C 1128.18,405.008 1126.18,404.008 1124.5,402.5C 1121.51,400 1118.17,398 1114.5,396.5C 1111.28,392.224 1107.28,388.891 1102.5,386.5C 1101.5,386.167 1100.83,385.5 1100.5,384.5C 1095.87,377.874 1090.87,371.54 1085.5,365.5C 1084.6,364.791 1084.26,363.791 1084.5,362.5C 1081.11,356.636 1078.11,350.636 1075.5,344.5C 1074.07,343.22 1073.4,341.553 1073.5,339.5C 1073.17,338.833 1072.83,338.167 1072.5,337.5C 1072.5,337.167 1072.5,336.833 1072.5,336.5C 1063.22,304.854 1063.22,273.187 1072.5,241.5C 1072.5,241.167 1072.5,240.833 1072.5,240.5C 1073.97,239.221 1074.63,237.554 1074.5,235.5C 1074.8,233.597 1075.46,231.93 1076.5,230.5C 1078.62,227.912 1079.96,224.912 1080.5,221.5C 1084.02,219.139 1086.02,215.805 1086.5,211.5C 1092.44,204.227 1098.77,197.227 1105.5,190.5C 1107.14,190.19 1108.14,189.19 1108.5,187.5C 1110.4,187.262 1111.74,186.262 1112.5,184.5C 1114.18,184.715 1115.18,184.048 1115.5,182.5C 1117.03,182.573 1118.03,181.906 1118.5,180.5C 1120.93,180.727 1122.6,179.727 1123.5,177.5C 1125.4,176.094 1127.07,175.094 1128.5,174.5C 1134.71,172.232 1141.05,170.232 1147.5,168.5C 1148.71,168.253 1149.38,167.586 1149.5,166.5C 1153.04,166.247 1156.37,165.581 1159.5,164.5C 1166.01,164.132 1172.34,163.465 1178.5,162.5 Z M 1188.5,210.5 C 1192.64,211.563 1196.97,212.23 1201.5,212.5C 1205.08,213.807 1208.75,215.141 1212.5,216.5C 1217.09,220.916 1221.93,225.25 1227,229.5C 1230.48,235.123 1233.31,240.623 1235.5,246C 1236.09,246.464 1236.76,246.631 1237.5,246.5C 1236.5,249.349 1237.17,251.849 1239.5,254C 1239.04,254.414 1238.71,254.914 1238.5,255.5C 1240.83,262.605 1242.83,269.605 1244.5,276.5C 1244.5,284.5 1244.5,292.5 1244.5,300.5C 1242.97,301.492 1242.31,302.992 1242.5,305C 1242.51,306.385 1242.85,307.551 1243.5,308.5C 1243.5,308.833 1243.5,309.167 1243.5,309.5C 1239.63,321.657 1234.63,333.99 1228.5,346.5C 1227.09,346.973 1226.43,347.973 1226.5,349.5C 1223.5,351.833 1220.83,354.5 1218.5,357.5C 1215.49,358.669 1212.82,360.336 1210.5,362.5C 1208.45,362.402 1206.78,363.069 1205.5,364.5C 1196.32,366.808 1186.98,367.808 1177.5,367.5C 1173.06,366.01 1168.39,365.01 1163.5,364.5C 1162.07,363.463 1160.4,362.796 1158.5,362.5C 1157.71,361.599 1156.71,360.932 1155.5,360.5C 1154.71,359.599 1153.71,358.932 1152.5,358.5C 1152.17,357.5 1151.5,356.833 1150.5,356.5C 1147.86,354.196 1145.19,351.862 1142.5,349.5C 1142.57,347.973 1141.91,346.973 1140.5,346.5C 1138.11,340.93 1135.78,335.764 1133.5,331C 1129.75,324.421 1127.59,317.254 1127,309.5C 1124.86,292.42 1125.36,275.42 1128.5,258.5C 1129.94,255.063 1130.94,251.397 1131.5,247.5C 1133.7,247.591 1134.03,246.925 1132.5,245.5C 1133.38,245.631 1134.04,245.298 1134.5,244.5C 1135.58,241.352 1136.91,238.352 1138.5,235.5C 1143.53,228.466 1149.53,222.466 1156.5,217.5C 1156.84,216.662 1157.51,216.328 1158.5,216.5C 1168.03,212.4 1178.03,210.4 1188.5,210.5 Z"/></g>
<g><path style="opacity:0.351" fill="#909090" d="M 1476.5,164.5 C 1462.15,163.023 1447.81,163.19 1433.5,165C 1424.29,168.013 1415.29,171.513 1406.5,175.5C 1408.6,173.593 1410.93,171.759 1413.5,170C 1434.15,161.865 1455.15,160.031 1476.5,164.5 Z"/></g>
<g><path style="opacity:0.289" fill="#8d8d8d" d="M 180.5,175.5 C 152.631,164.175 123.631,160.342 93.5,164C 88.1924,164.83 82.8591,165.33 77.5,165.5C 82.2939,164.27 87.2939,163.437 92.5,163C 107.833,162.333 123.167,162.333 138.5,163C 151.998,163.965 164.998,166.965 177.5,172C 179.063,172.759 180.063,173.926 180.5,175.5 Z"/></g>
<g><path style="opacity:1" fill="#fefefe" d="M 180.5,175.5 C 182.062,175.733 183.395,176.4 184.5,177.5C 189.023,181.267 193.357,185.267 197.5,189.5C 199.748,192.328 201.748,195.328 203.5,198.5C 204.462,202.395 205.796,206.061 207.5,209.5C 208.876,214.365 209.71,219.365 210,224.5C 210.047,270.523 210.713,316.523 212,362.5C 215.473,372.069 222.307,375.736 232.5,373.5C 232.813,385.884 232.48,398.217 231.5,410.5C 216.875,412.245 202.208,412.745 187.5,412C 183.432,410.106 179.098,409.273 174.5,409.5C 171.872,407.512 169.205,405.512 166.5,403.5C 165.5,403.167 164.833,402.5 164.5,401.5C 160.212,395.233 157.878,388.233 157.5,380.5C 156.209,380.263 155.209,380.596 154.5,381.5C 153.396,383.389 152.063,385.055 150.5,386.5C 146.129,391.873 141.129,396.539 135.5,400.5C 134.564,401.974 133.23,402.974 131.5,403.5C 125.15,405.607 119.15,408.274 113.5,411.5C 92.568,416.306 71.568,416.64 50.5,412.5C 48.901,412.768 47.5676,412.434 46.5,411.5C 45.0101,409.72 43.0101,409.054 40.5,409.5C 39.4863,408.326 38.153,407.66 36.5,407.5C 35.225,405.27 33.225,403.937 30.5,403.5C 29.5084,403.672 28.8417,403.338 28.5,402.5C 23.1667,397.833 18.1667,392.833 13.5,387.5C 12.8333,387.5 12.5,387.167 12.5,386.5C 11.4764,383.445 10.1431,380.445 8.5,377.5C 8.04311,376.702 7.37644,376.369 6.5,376.5C 4.00503,367.288 1.6717,358.288 -0.5,349.5C -0.5,345.5 -0.5,341.5 -0.5,337.5C 1.50917,330.833 3.17584,323.833 4.5,316.5C 5.34464,315.329 6.01131,313.995 6.5,312.5C 7.23973,309.382 8.90639,306.382 11.5,303.5C 18.1914,295.663 25.8581,288.996 34.5,283.5C 39.9263,282.277 44.9263,280.277 49.5,277.5C 50.209,276.596 51.209,276.263 52.5,276.5C 57.1515,276.373 61.4848,275.373 65.5,273.5C 70.0127,272.929 74.346,271.929 78.5,270.5C 80.6074,269.532 82.9407,269.198 85.5,269.5C 99.4541,268.55 113.121,266.55 126.5,263.5C 129.543,262.691 132.376,261.358 135,259.5C 135.383,260.056 135.883,260.389 136.5,260.5C 152.356,254.123 158.189,242.456 154,225.5C 153.528,221.89 152.028,218.89 149.5,216.5C 147.475,214.804 145.475,213.137 143.5,211.5C 142.313,209.025 140.313,208.025 137.5,208.5C 136.833,207.833 136.167,207.167 135.5,206.5C 128.152,204.14 120.486,203.14 112.5,203.5C 106.126,203.529 99.7931,204.029 93.5,205C 91.8807,205.236 90.8807,206.069 90.5,207.5C 87.3511,207.415 84.6845,208.415 82.5,210.5C 81.7095,211.401 80.7095,212.068 79.5,212.5C 77.9731,212.427 76.9731,213.094 76.5,214.5C 76.1667,215.5 75.5,216.167 74.5,216.5C 68.1626,223.138 64.4959,231.138 63.5,240.5C 45.5,240.5 27.5,240.5 9.5,240.5C 9.5,238.5 9.5,236.5 9.5,234.5C 10.8789,229.605 11.8789,224.605 12.5,219.5C 14.8163,214.239 17.1496,208.905 19.5,203.5C 22.4678,201.147 24.6345,198.147 26,194.5C 29.3427,190.99 32.8427,187.657 36.5,184.5C 36.8333,183.5 37.5,182.833 38.5,182.5C 40.0269,182.573 41.0269,181.906 41.5,180.5C 44.3311,179.921 46.6644,178.588 48.5,176.5C 49.1667,175.833 49.8333,175.167 50.5,174.5C 59.7906,171.938 68.7906,168.938 77.5,165.5C 82.8591,165.33 88.1924,164.83 93.5,164C 123.631,160.342 152.631,164.175 180.5,175.5 Z M 152.5,286.5 C 153.38,288.137 154.046,289.97 154.5,292C 153.868,304.306 153.368,316.806 153,329.5C 151.808,335.602 150.308,341.602 148.5,347.5C 147.662,347.842 147.328,348.508 147.5,349.5C 145.302,349.409 144.969,350.075 146.5,351.5C 143.492,354.14 140.825,357.14 138.5,360.5C 136.973,360.427 135.973,361.094 135.5,362.5C 134.29,362.932 133.29,363.599 132.5,364.5C 125.716,367.556 118.716,370.056 111.5,372C 93.5466,375.589 77.88,371.422 64.5,359.5C 64.573,357.973 63.9063,356.973 62.5,356.5C 57.9938,343.722 58.9938,331.389 65.5,319.5C 67.5,318.167 69.1667,316.5 70.5,314.5C 80.3111,310.327 89.9777,306.327 99.5,302.5C 103.425,302.57 107.091,301.903 110.5,300.5C 115.076,300.562 119.409,299.895 123.5,298.5C 126.428,298.435 129.095,297.768 131.5,296.5C 133.099,296.768 134.432,296.434 135.5,295.5C 139.165,295.498 142.165,294.165 144.5,291.5C 146.819,291.008 148.819,290.008 150.5,288.5C 151.5,288.167 152.167,287.5 152.5,286.5 Z"/></g>
<g><path style="opacity:1" fill="#fefefe" d="M 602.5,165.5 C 609.379,168.61 616.045,172.276 622.5,176.5C 622.833,176.5 623.167,176.5 623.5,176.5C 623.833,177.5 624.5,178.167 625.5,178.5C 628.195,181.526 630.862,184.526 633.5,187.5C 633.427,189.027 634.094,190.027 635.5,190.5C 637.963,193.763 639.63,197.429 640.5,201.5C 640.957,202.298 641.624,202.631 642.5,202.5C 642.56,203.043 642.893,203.376 643.5,203.5C 644.952,202.06 645.952,200.394 646.5,198.5C 647.906,198.027 648.573,197.027 648.5,195.5C 654.5,188.833 660.833,182.5 667.5,176.5C 673.85,172.829 680.183,169.496 686.5,166.5C 701.021,163.815 715.688,162.815 730.5,163.5C 736.991,164.882 743.324,167.048 749.5,170C 753.069,171.942 756.402,174.108 759.5,176.5C 761.674,176.75 763.341,177.75 764.5,179.5C 766.167,181.833 768.167,183.833 770.5,185.5C 770.427,187.027 771.094,188.027 772.5,188.5C 773.239,188.369 773.906,188.536 774.5,189C 773.402,189.77 773.402,190.603 774.5,191.5C 777.092,196.101 779.592,200.768 782,205.5C 783.369,210.664 784.869,215.664 786.5,220.5C 787.473,222.948 787.806,225.615 787.5,228.5C 788.763,261.854 788.763,295.187 787.5,328.5C 782.881,332.452 778.548,336.785 774.5,341.5C 773.136,343.191 771.803,344.858 770.5,346.5C 769.761,346.369 769.094,346.536 768.5,347C 760.104,355.313 752.104,363.813 744.5,372.5C 742.184,373.422 740.517,375.089 739.5,377.5C 737.184,378.422 735.517,380.089 734.5,382.5C 733.094,382.973 732.427,383.973 732.5,385.5C 732.158,386.338 731.492,386.672 730.5,386.5C 730.667,341.165 730.5,295.832 730,250.5C 730.243,237.833 725.743,227.333 716.5,219C 714.922,217.906 713.255,217.072 711.5,216.5C 709.081,214.138 706.081,213.138 702.5,213.5C 697.35,212.349 692.016,212.183 686.5,213C 682.386,213.115 678.719,214.282 675.5,216.5C 675.5,216.833 675.5,217.167 675.5,217.5C 669.19,219.918 664.024,223.918 660,229.5C 654.702,237.359 651.868,246.026 651.5,255.5C 650.681,258.305 650.181,261.305 650,264.5C 649.5,313.166 649.333,361.832 649.5,410.5C 630.466,410.204 611.466,410.538 592.5,411.5C 591.671,358.237 591.171,304.904 591,251.5C 591.16,238.625 586.66,227.791 577.5,219C 575.807,218.153 574.14,217.32 572.5,216.5C 570.081,214.138 567.081,213.138 563.5,213.5C 558.167,213.5 552.833,213.5 547.5,213.5C 543.466,213.517 539.799,214.517 536.5,216.5C 528.002,220.994 522.002,227.66 518.5,236.5C 517.044,239.412 515.544,242.412 514,245.5C 512.238,253.403 511.238,261.403 511,269.5C 510.5,316.499 510.333,363.499 510.5,410.5C 490.804,411.154 471.471,410.488 452.5,408.5C 453.499,329.335 453.833,250.002 453.5,170.5C 471.833,170.5 490.167,170.5 508.5,170.5C 508.334,180.506 508.5,190.506 509,200.5C 510.566,201.061 511.899,200.394 513,198.5C 514.511,196.138 516.011,193.805 517.5,191.5C 518.864,189.809 520.197,188.142 521.5,186.5C 523.144,186.19 524.144,185.19 524.5,183.5C 526.23,182.974 527.564,181.974 528.5,180.5C 530.442,178.609 532.275,176.609 534,174.5C 534.77,175.598 535.603,175.598 536.5,174.5C 544.154,170.832 551.821,167.499 559.5,164.5C 573.886,162.954 588.219,163.288 602.5,165.5 Z"/></g>
<g><path style="opacity:0.29" fill="#8b8b8b" d="M 1178.5,162.5 C 1172.34,163.465 1166.01,164.132 1159.5,164.5C 1165.57,162.752 1171.91,162.085 1178.5,162.5 Z"/></g>
<g><path style="opacity:1" fill="#fefefe" d="M 1476.5,164.5 C 1485.77,167.629 1494.77,171.629 1503.5,176.5C 1503.83,177.5 1504.5,178.167 1505.5,178.5C 1508.14,180.804 1510.81,183.138 1513.5,185.5C 1517.25,189.912 1520.59,194.578 1523.5,199.5C 1525.88,207.056 1528.54,214.389 1531.5,221.5C 1532.26,231.199 1533.59,240.532 1535.5,249.5C 1535.5,303.167 1535.5,356.833 1535.5,410.5C 1515.83,410.5 1496.17,410.5 1476.5,410.5C 1476.67,360.832 1476.5,311.166 1476,261.5C 1475.79,255.6 1474.96,249.934 1473.5,244.5C 1473.14,240.737 1472.31,237.07 1471,233.5C 1470.58,232.244 1469.75,231.577 1468.5,231.5C 1466.3,231.591 1465.97,230.925 1467.5,229.5C 1467.5,227.5 1466.5,226.5 1464.5,226.5C 1462.53,222.681 1459.53,220.014 1455.5,218.5C 1454.83,217.833 1454.17,217.167 1453.5,216.5C 1449.53,214.425 1445.19,213.425 1440.5,213.5C 1435.68,212.35 1430.68,212.184 1425.5,213C 1420.77,213.115 1416.43,214.282 1412.5,216.5C 1412.5,217.833 1411.83,218.5 1410.5,218.5C 1399.33,222.829 1391.17,230.496 1386,241.5C 1385.51,242.793 1385.34,244.127 1385.5,245.5C 1382.97,250.784 1381.3,256.451 1380.5,262.5C 1379.83,311.998 1379.17,361.332 1378.5,410.5C 1359.99,410.17 1341.66,410.503 1323.5,411.5C 1323.17,411.5 1322.83,411.5 1322.5,411.5C 1322.5,331.167 1322.5,250.833 1322.5,170.5C 1341.17,170.5 1359.83,170.5 1378.5,170.5C 1379.17,181.008 1379.83,191.674 1380.5,202.5C 1381.92,201.995 1382.59,200.995 1382.5,199.5C 1383.91,199.027 1384.57,198.027 1384.5,196.5C 1391.2,188.798 1398.53,181.798 1406.5,175.5C 1415.29,171.513 1424.29,168.013 1433.5,165C 1447.81,163.19 1462.15,163.023 1476.5,164.5 Z"/></g>
<g><path style="opacity:0.238" fill="#878787" d="M 1159.5,164.5 C 1156.37,165.581 1153.04,166.247 1149.5,166.5C 1152.51,164.825 1155.84,164.159 1159.5,164.5 Z"/></g>
<g><path style="opacity:0.147" fill="#909090" d="M 899.5,165.5 C 891.698,168.999 883.698,172.332 875.5,175.5C 876.626,173.547 878.292,172.047 880.5,171C 886.591,168.247 892.924,166.413 899.5,165.5 Z"/></g>
<g><path style="opacity:0.098" fill="#929292" d="M 77.5,165.5 C 68.7906,168.938 59.7906,171.938 50.5,174.5C 58.6452,169.34 67.6452,166.34 77.5,165.5 Z"/></g>
<g><path style="opacity:0.145" fill="#909090" d="M 559.5,164.5 C 551.821,167.499 544.154,170.832 536.5,174.5C 536.414,173.504 536.748,172.671 537.5,172C 544.313,168.007 551.647,165.507 559.5,164.5 Z"/></g>
<g><path style="opacity:0.11" fill="#909090" d="M 1178.5,162.5 C 1198.63,160.963 1218.3,163.796 1237.5,171C 1238.76,171.417 1239.42,172.25 1239.5,173.5C 1219.98,165.635 1199.65,161.969 1178.5,162.5 Z"/></g>
<g><path style="opacity:0.024" fill="#8b8b8b" d="M 602.5,165.5 C 607.411,166.116 612.077,167.616 616.5,170C 619.294,171.535 621.294,173.702 622.5,176.5C 616.045,172.276 609.379,168.61 602.5,165.5 Z"/></g>
<g><path style="opacity:1" fill="#fdfdfd" d="M 995.5,177.5 C 998.981,180.409 1002.65,183.075 1006.5,185.5C 1009.41,188.959 1012.75,191.959 1016.5,194.5C 1019.46,198.798 1022.8,202.798 1026.5,206.5C 1026.43,208.027 1027.09,209.027 1028.5,209.5C 1032.37,216.465 1036.03,223.465 1039.5,230.5C 1045.01,248.231 1048.34,266.231 1049.5,284.5C 1049.5,290.167 1049.5,295.833 1049.5,301.5C 992.833,301.5 936.167,301.5 879.5,301.5C 878.307,301.97 877.64,302.97 877.5,304.5C 877.611,308.656 878.611,312.322 880.5,315.5C 880.855,323.294 883.189,330.294 887.5,336.5C 887.427,338.027 888.094,339.027 889.5,339.5C 890.433,342.37 892.1,344.704 894.5,346.5C 895.338,346.842 895.672,347.508 895.5,348.5C 895.5,350.5 896.5,351.5 898.5,351.5C 899.833,352.167 900.833,353.167 901.5,354.5C 902.948,357.264 905.281,358.931 908.5,359.5C 909.29,360.401 910.29,361.068 911.5,361.5C 912.6,362.558 913.934,363.392 915.5,364C 926.882,368.1 938.548,369.767 950.5,369C 952.502,367.981 954.502,367.148 956.5,366.5C 957.568,365.566 958.901,365.232 960.5,365.5C 962.553,365.598 964.22,364.931 965.5,363.5C 969.976,362.429 973.643,360.096 976.5,356.5C 979.764,355.073 982.264,352.739 984,349.5C 985.527,346.447 987.027,343.447 988.5,340.5C 988.263,339.209 988.596,338.209 989.5,337.5C 989.833,337.5 990.167,337.5 990.5,337.5C 1008.83,337.5 1027.17,337.5 1045.5,337.5C 1045.01,339.806 1044.67,342.139 1044.5,344.5C 1040.29,353.097 1035.95,361.764 1031.5,370.5C 1030.24,373.179 1028.24,375.845 1025.5,378.5C 1022.5,380.833 1019.83,383.5 1017.5,386.5C 1016.97,388.23 1015.97,389.564 1014.5,390.5C 1009.73,393.42 1005.07,396.586 1000.5,400C 991.185,404.497 981.851,408.664 972.5,412.5C 968.575,412.43 964.909,413.097 961.5,414.5C 942.068,416.274 922.734,415.608 903.5,412.5C 901.901,412.768 900.568,412.434 899.5,411.5C 897.077,409.145 894.077,408.145 890.5,408.5C 879.31,402.893 868.643,396.226 858.5,388.5C 856.833,387.5 855.5,386.167 854.5,384.5C 854.5,382.5 853.5,381.5 851.5,381.5C 850.855,379.174 849.522,377.507 847.5,376.5C 846.5,376.167 845.833,375.5 845.5,374.5C 839.644,364.789 834.311,354.789 829.5,344.5C 827.302,344.591 826.969,343.925 828.5,342.5C 825.782,335.744 824.282,328.744 824,321.5C 839.62,306.046 855.12,290.379 870.5,274.5C 871.167,273.167 872.167,272.167 873.5,271.5C 876.323,269.177 878.99,266.677 881.5,264C 917.669,263.833 953.669,263.333 989.5,262.5C 989.276,258.821 988.942,255.154 988.5,251.5C 987.89,250.609 987.557,249.609 987.5,248.5C 987.5,247.833 987.5,247.167 987.5,246.5C 987.167,245.833 986.833,245.167 986.5,244.5C 986.5,244.167 986.5,243.833 986.5,243.5C 984.202,234.895 979.869,227.561 973.5,221.5C 971.408,219.395 969.075,217.728 966.5,216.5C 966.027,215.094 965.027,214.427 963.5,214.5C 960.314,213.403 957.314,212.07 954.5,210.5C 952.162,208.96 949.495,208.294 946.5,208.5C 942.348,207.448 938.015,206.614 933.5,206C 934.056,205.617 934.389,205.117 934.5,204.5C 934.5,203.833 934.833,203.5 935.5,203.5C 937.671,201.5 940.004,199.666 942.5,198C 943.823,197.184 944.489,196.017 944.5,194.5C 945.5,194.167 946.167,193.5 946.5,192.5C 951.23,188.773 955.23,184.44 958.5,179.5C 959.833,177.5 961.5,175.833 963.5,174.5C 966.147,172.189 968.814,169.856 971.5,167.5C 979.952,169.869 987.952,173.203 995.5,177.5 Z"/></g>
<g><path style="opacity:0.05" fill="#8d8d8d" d="M 995.5,177.5 C 987.952,173.203 979.952,169.869 971.5,167.5C 968.814,169.856 966.147,172.189 963.5,174.5C 965.408,170.92 968.074,167.92 971.5,165.5C 975.669,167.459 980.002,168.959 984.5,170C 988.58,172.029 992.246,174.529 995.5,177.5 Z"/></g>
<g><path style="opacity:0.072" fill="#919191" d="M 1476.5,164.5 C 1485.88,165.689 1494.55,168.856 1502.5,174C 1503.25,174.671 1503.59,175.504 1503.5,176.5C 1494.77,171.629 1485.77,167.629 1476.5,164.5 Z"/></g>
<g><path style="opacity:0.047" fill="#909090" d="M 686.5,166.5 C 680.183,169.496 673.85,172.829 667.5,176.5C 672.524,170.82 678.857,167.487 686.5,166.5 Z"/></g>
<g><path style="opacity:0.443" fill="#929292" d="M 730.5,163.5 C 740.924,163.863 750.258,167.196 758.5,173.5C 759.386,174.325 759.719,175.325 759.5,176.5C 756.402,174.108 753.069,171.942 749.5,170C 743.324,167.048 736.991,164.882 730.5,163.5 Z"/></g>
<g><path style="opacity:0.013" fill="#8d8d8d" d="M 1149.5,166.5 C 1149.38,167.586 1148.71,168.253 1147.5,168.5C 1141.05,170.232 1134.71,172.232 1128.5,174.5C 1130.92,172.159 1134.26,170.326 1138.5,169C 1142.01,167.438 1145.68,166.605 1149.5,166.5 Z"/></g>
<g><path style="opacity:0.106" fill="#848484" d="M 1382.5,199.5 C 1382.59,200.995 1381.92,201.995 1380.5,202.5C 1379.83,191.674 1379.17,181.008 1378.5,170.5C 1359.67,169.503 1340.67,169.17 1321.5,169.5C 1321.17,250.335 1321.5,331.002 1322.5,411.5C 1322.83,411.5 1323.17,411.5 1323.5,411.5C 1323.83,411.5 1324.17,411.5 1324.5,411.5C 1323.43,412.434 1322.1,412.768 1320.5,412.5C 1320.33,331.166 1320.5,249.833 1321,168.5C 1340.43,168.033 1359.93,168.033 1379.5,168.5C 1380.33,179.151 1380.83,189.818 1381,200.5C 1381.38,199.944 1381.88,199.611 1382.5,199.5 Z"/></g>
<g><path style="opacity:0.776" fill="#aeaeae" d="M 1378.5,170.5 C 1359.83,170.5 1341.17,170.5 1322.5,170.5C 1322.5,250.833 1322.5,331.167 1322.5,411.5C 1321.5,331.002 1321.17,250.335 1321.5,169.5C 1340.67,169.17 1359.67,169.503 1378.5,170.5 Z"/></g>
<g><path style="opacity:0.008" fill="#8c8c8c" d="M 623.5,176.5 C 624.833,176.5 625.5,177.167 625.5,178.5C 624.5,178.167 623.833,177.5 623.5,176.5 Z"/></g>
<g><path style="opacity:0.827" fill="#a5a5a5" d="M 1406.5,175.5 C 1398.53,181.798 1391.2,188.798 1384.5,196.5C 1389.88,187.45 1397.22,180.45 1406.5,175.5 Z"/></g>
<g><path style="opacity:0.063" fill="#929292" d="M 1503.5,176.5 C 1504.83,176.5 1505.5,177.167 1505.5,178.5C 1504.5,178.167 1503.83,177.5 1503.5,176.5 Z"/></g>
<g><path style="opacity:0.976" fill="#bbbbbb" d="M 1242.5,174.5 C 1245.78,176.292 1248.78,178.292 1251.5,180.5C 1248.74,179.623 1246.08,178.456 1243.5,177C 1242.75,176.329 1242.41,175.496 1242.5,174.5 Z"/></g>
<g><path style="opacity:0.29" fill="#a3a3a3" d="M 625.5,178.5 C 629.565,180.233 632.232,183.233 633.5,187.5C 630.862,184.526 628.195,181.526 625.5,178.5 Z"/></g>
<g><path style="opacity:0.925" fill="#b4b4b4" d="M 1123.5,177.5 C 1122.6,179.727 1120.93,180.727 1118.5,180.5C 1119.9,179.11 1121.57,178.11 1123.5,177.5 Z"/></g>
<g><path style="opacity:0.925" fill="#b6b6b6" d="M 48.5,176.5 C 46.6644,178.588 44.3311,179.921 41.5,180.5C 43.3356,178.412 45.6689,177.079 48.5,176.5 Z"/></g>
<g><path style="opacity:0.086" fill="#9c9c9c" d="M 764.5,179.5 C 767.5,180.5 769.5,182.5 770.5,185.5C 768.167,183.833 766.167,181.833 764.5,179.5 Z"/></g>
<g><path style="opacity:0.729" fill="#979797" d="M 1505.5,178.5 C 1509.4,179.393 1512.06,181.726 1513.5,185.5C 1510.81,183.138 1508.14,180.804 1505.5,178.5 Z"/></g>
<g><path style="opacity:0.663" fill="#a3a3a3" d="M 995.5,177.5 C 1000.06,178.946 1003.73,181.613 1006.5,185.5C 1002.65,183.075 998.981,180.409 995.5,177.5 Z"/></g>
<g><path style="opacity:0.933" fill="#b1b1b1" d="M 41.5,180.5 C 41.0269,181.906 40.0269,182.573 38.5,182.5C 38.9731,181.094 39.9731,180.427 41.5,180.5 Z"/></g>
<g><path style="opacity:0.65" fill="#acacac" d="M 288.5,176.5 C 288.53,177.497 288.03,178.164 287,178.5C 278.705,181.259 270.205,182.926 261.5,183.5C 270.567,181.814 279.567,179.481 288.5,176.5 Z"/></g>
<g><path style="opacity:0.439" fill="#959595" d="M 528.5,180.5 C 527.564,181.974 526.23,182.974 524.5,183.5C 525.035,181.554 526.368,180.554 528.5,180.5 Z"/></g>
<g><path style="opacity:0.271" fill="#949494" d="M 943.5,172.5 C 934.311,182.8 924.644,192.8 914.5,202.5C 919.1,196.725 923.934,191.059 929,185.5C 933.452,180.538 938.285,176.204 943.5,172.5 Z"/></g>
<g><path style="opacity:0.867" fill="#a7a7a7" d="M 1118.5,180.5 C 1118.03,181.906 1117.03,182.573 1115.5,182.5C 1115.97,181.094 1116.97,180.427 1118.5,180.5 Z"/></g>
<g><path style="opacity:0.992" fill="#b9b9b9" d="M 1115.5,182.5 C 1115.18,184.048 1114.18,184.715 1112.5,184.5C 1113.29,183.599 1114.29,182.932 1115.5,182.5 Z"/></g>
<g><path style="opacity:0.165" fill="#979797" d="M 184.5,177.5 C 190.329,179.909 194.663,183.909 197.5,189.5C 193.357,185.267 189.023,181.267 184.5,177.5 Z"/></g>
<g><path style="opacity:0.973" fill="#bbbbbb" d="M 958.5,179.5 C 955.23,184.44 951.23,188.773 946.5,192.5C 949.77,187.56 953.77,183.227 958.5,179.5 Z"/></g>
<g><path style="opacity:0.031" fill="#949494" d="M 1251.5,180.5 C 1258.61,182.941 1264.27,187.274 1268.5,193.5C 1263.09,188.752 1257.43,184.419 1251.5,180.5 Z"/></g>
<g><path style="opacity:0.988" fill="#bababa" d="M 524.5,183.5 C 524.144,185.19 523.144,186.19 521.5,186.5C 521.856,184.81 522.856,183.81 524.5,183.5 Z"/></g>
<g><path style="opacity:0.58" fill="#929292" d="M 1112.5,184.5 C 1111.74,186.262 1110.4,187.262 1108.5,187.5C 1109.26,185.738 1110.6,184.738 1112.5,184.5 Z"/></g>
<g><path style="opacity:0.929" fill="#b4b4b4" d="M 667.5,176.5 C 660.833,182.5 654.5,188.833 648.5,195.5C 653.167,187.5 659.5,181.167 667.5,176.5 Z"/></g>
<g><path style="opacity:0.831" fill="#a1a1a1" d="M 770.5,185.5 C 771.906,185.973 772.573,186.973 772.5,188.5C 771.094,188.027 770.427,187.027 770.5,185.5 Z"/></g>
<g><path style="opacity:0.988" fill="#b9b9b9" d="M 633.5,187.5 C 635.048,187.821 635.715,188.821 635.5,190.5C 634.094,190.027 633.427,189.027 633.5,187.5 Z"/></g>
<g><path style="opacity:0.98" fill="#b5b5b5" d="M 1108.5,187.5 C 1108.14,189.19 1107.14,190.19 1105.5,190.5C 1105.86,188.81 1106.86,187.81 1108.5,187.5 Z"/></g>
<g><path style="opacity:0.957" fill="#acacac" d="M 869.5,178.5 C 862.254,183.734 855.254,189.401 848.5,195.5C 846.161,199.502 843.161,202.835 839.5,205.5C 842.067,201.907 844.733,198.24 847.5,194.5C 852.646,190.522 857.646,186.355 862.5,182C 864.577,180.295 866.91,179.128 869.5,178.5 Z"/></g>
<g><path style="opacity:0.824" fill="#a2a2a2" d="M 1006.5,185.5 C 1008.93,186.75 1011.27,188.25 1013.5,190C 1015.14,191.129 1016.14,192.629 1016.5,194.5C 1012.75,191.959 1009.41,188.959 1006.5,185.5 Z"/></g>
<g><path style="opacity:0.149" fill="#909090" d="M 1513.5,185.5 C 1515.37,185.859 1516.87,186.859 1518,188.5C 1520.39,191.952 1522.23,195.619 1523.5,199.5C 1520.59,194.578 1517.25,189.912 1513.5,185.5 Z"/></g>
<g><path style="opacity:0.329" fill="#939393" d="M 197.5,189.5 C 199.017,189.511 200.184,190.177 201,191.5C 202.705,193.577 203.872,195.91 204.5,198.5C 204.167,198.5 203.833,198.5 203.5,198.5C 201.748,195.328 199.748,192.328 197.5,189.5 Z"/></g>
<g><path style="opacity:0.6" fill="#989898" d="M 946.5,192.5 C 946.167,193.5 945.5,194.167 944.5,194.5C 944.5,193.167 945.167,192.5 946.5,192.5 Z"/></g>
<g><path style="opacity:0.91" fill="#a4a4a4" d="M 1016.5,194.5 C 1020.96,197.619 1024.29,201.619 1026.5,206.5C 1022.8,202.798 1019.46,198.798 1016.5,194.5 Z"/></g>
<g><path style="opacity:0.906" fill="#a9a9a9" d="M 648.5,195.5 C 648.573,197.027 647.906,198.027 646.5,198.5C 646.427,196.973 647.094,195.973 648.5,195.5 Z"/></g>
<g><path style="opacity:0.392" fill="#999999" d="M 36.5,184.5 C 32.8427,187.657 29.3427,190.99 26,194.5C 24.6345,198.147 22.4678,201.147 19.5,203.5C 21.4188,200.274 23.2521,196.94 25,193.5C 28.158,191.043 30.9914,188.21 33.5,185C 34.448,184.517 35.448,184.351 36.5,184.5 Z"/></g>
<g><path style="opacity:0.716" fill="#a2a2a2" d="M 635.5,190.5 C 637.074,190.937 638.241,191.937 639,193.5C 640.273,196.489 641.439,199.489 642.5,202.5C 641.624,202.631 640.957,202.298 640.5,201.5C 639.63,197.429 637.963,193.763 635.5,190.5 Z"/></g>
<g><path style="opacity:0.796" fill="#9c9c9c" d="M 1384.5,196.5 C 1384.57,198.027 1383.91,199.027 1382.5,199.5C 1382.43,197.973 1383.09,196.973 1384.5,196.5 Z"/></g>
<g><path style="opacity:0.498" fill="#9b9b9b" d="M 944.5,194.5 C 944.489,196.017 943.823,197.184 942.5,198C 940.004,199.666 937.671,201.5 935.5,203.5C 937.478,199.522 940.478,196.522 944.5,194.5 Z"/></g>
<g><path style="opacity:0.098" fill="#959595" d="M 646.5,198.5 C 645.952,200.394 644.952,202.06 643.5,203.5C 642.893,203.376 642.56,203.043 642.5,202.5C 643.283,200.672 644.616,199.339 646.5,198.5 Z"/></g>
<g><path style="opacity:0.533" fill="#999999" d="M 1268.5,193.5 C 1274.36,198.238 1279.03,203.904 1282.5,210.5C 1277.6,205.026 1272.93,199.36 1268.5,193.5 Z"/></g>
<g><path style="opacity:0.917" fill="#c4c4c4" d="M 135.5,206.5 C 134.167,206.5 132.833,206.5 131.5,206.5C 117.698,203.598 104.031,203.932 90.5,207.5C 90.8807,206.069 91.8807,205.236 93.5,205C 99.7931,204.029 106.126,203.529 112.5,203.5C 120.486,203.14 128.152,204.14 135.5,206.5 Z"/></g>
<g><path style="opacity:0.933" fill="#c3c3c3" d="M 203.5,198.5 C 203.833,198.5 204.167,198.5 204.5,198.5C 205.899,201.699 206.899,205.032 207.5,208.5C 207.5,208.833 207.5,209.167 207.5,209.5C 205.796,206.061 204.462,202.395 203.5,198.5 Z"/></g>
<g><path style="opacity:0.655" fill="#979797" d="M 1105.5,190.5 C 1098.77,197.227 1092.44,204.227 1086.5,211.5C 1091.07,202.929 1097.4,195.929 1105.5,190.5 Z"/></g>
<g><path style="opacity:0.757" fill="#9f9f9f" d="M 1523.5,199.5 C 1528.32,205.951 1530.99,213.285 1531.5,221.5C 1528.54,214.389 1525.88,207.056 1523.5,199.5 Z"/></g>
<g><path style="opacity:0.192" fill="#8c8c8c" d="M 774.5,191.5 C 776.945,193.117 778.945,195.284 780.5,198C 783.833,205.163 785.833,212.663 786.5,220.5C 784.869,215.664 783.369,210.664 782,205.5C 779.592,200.768 777.092,196.101 774.5,191.5 Z"/></g>
<g><path style="opacity:0.157" fill="#989898" d="M 914.5,202.5 C 911.437,206.566 907.771,209.899 903.5,212.5C 906.563,208.434 910.229,205.101 914.5,202.5 Z"/></g>
<g><path style="opacity:0.114" fill="#868686" d="M 131.5,206.5 C 132.833,206.5 134.167,206.5 135.5,206.5C 136.167,207.167 136.833,207.833 137.5,208.5C 135.214,208.405 133.214,207.738 131.5,206.5 Z"/></g>
<g><path style="opacity:0.217" fill="#868686" d="M 934.5,204.5 C 934.389,205.117 934.056,205.617 933.5,206C 938.015,206.614 942.348,207.448 946.5,208.5C 941.819,208.331 937.152,207.998 932.5,207.5C 932.285,205.821 932.952,204.821 934.5,204.5 Z"/></g>
<g><path style="opacity:0.902" fill="#a8a8a8" d="M 1026.5,206.5 C 1027.91,206.973 1028.57,207.973 1028.5,209.5C 1027.09,209.027 1026.43,208.027 1026.5,206.5 Z"/></g>
<g><path style="opacity:0.38" fill="#909090" d="M 90.5,207.5 C 88.1098,209.02 85.4432,210.02 82.5,210.5C 84.6845,208.415 87.3511,207.415 90.5,207.5 Z"/></g>
<g><path style="opacity:0.356" fill="#919191" d="M 946.5,208.5 C 949.495,208.294 952.162,208.96 954.5,210.5C 951.572,210.435 948.905,209.768 946.5,208.5 Z"/></g>
<g><path style="opacity:0.42" fill="#a1a1a1" d="M 137.5,208.5 C 140.313,208.025 142.313,209.025 143.5,211.5C 141.181,211.008 139.181,210.008 137.5,208.5 Z"/></g>
<g><path style="opacity:0.062" fill="#8c8c8c" d="M 1028.5,209.5 C 1034.27,215.302 1037.93,222.302 1039.5,230.5C 1036.03,223.465 1032.37,216.465 1028.5,209.5 Z"/></g>
<g><path style="opacity:0.627" fill="#a2a2a2" d="M 1188.5,210.5 C 1178.03,210.4 1168.03,212.4 1158.5,216.5C 1161.27,213.701 1164.77,212.034 1169,211.5C 1175.63,210.067 1182.13,209.733 1188.5,210.5 Z"/></g>
<g><path style="opacity:0.628" fill="#9e9e9e" d="M 1188.5,210.5 C 1193.12,210.156 1197.46,210.823 1201.5,212.5C 1196.97,212.23 1192.64,211.563 1188.5,210.5 Z"/></g>
<g><path style="opacity:0.627" fill="#909090" d="M 1282.5,210.5 C 1283.91,210.973 1284.57,211.973 1284.5,213.5C 1283.09,213.027 1282.43,212.027 1282.5,210.5 Z"/></g>
<g><path style="opacity:0.818" fill="#b6b6b6" d="M 702.5,213.5 C 693.295,213.045 684.295,214.045 675.5,216.5C 678.719,214.282 682.386,213.115 686.5,213C 692.016,212.183 697.35,212.349 702.5,213.5 Z"/></g>
<g><path style="opacity:0.255" fill="#9d9d9d" d="M 79.5,212.5 C 79.0269,213.906 78.0269,214.573 76.5,214.5C 76.9731,213.094 77.9731,212.427 79.5,212.5 Z"/></g>
<g><path style="opacity:0.889" fill="#bcbcbc" d="M 563.5,213.5 C 567.081,213.138 570.081,214.138 572.5,216.5C 569.341,215.669 566.341,214.669 563.5,213.5 Z"/></g>
<g><path style="opacity:0.898" fill="#bcbcbc" d="M 1440.5,213.5 C 1431,213.191 1421.67,214.191 1412.5,216.5C 1416.43,214.282 1420.77,213.115 1425.5,213C 1430.68,212.184 1435.68,212.35 1440.5,213.5 Z"/></g>
<g><path style="opacity:0.898" fill="#c1c1c1" d="M 1440.5,213.5 C 1445.19,213.425 1449.53,214.425 1453.5,216.5C 1453.17,216.5 1452.83,216.5 1452.5,216.5C 1448.31,215.787 1444.31,214.787 1440.5,213.5 Z"/></g>
<g><path style="opacity:0.663" fill="#959595" d="M 19.5,203.5 C 17.1496,208.905 14.8163,214.239 12.5,219.5C 13.0233,216.11 13.8566,212.777 15,209.5C 15.8136,206.823 17.3136,204.823 19.5,203.5 Z"/></g>
<g><path style="opacity:0.953" fill="#c2c2c2" d="M 547.5,213.5 C 544.381,214.87 541.048,215.87 537.5,216.5C 537.167,216.5 536.833,216.5 536.5,216.5C 539.799,214.517 543.466,213.517 547.5,213.5 Z"/></g>
<g><path style="opacity:0.827" fill="#9f9f9f" d="M 839.5,205.5 C 837.328,209.847 834.662,213.847 831.5,217.5C 832.352,214.777 833.519,212.11 835,209.5C 835.876,207.365 837.376,206.031 839.5,205.5 Z"/></g>
<g><path style="opacity:0.918" fill="#ababab" d="M 963.5,214.5 C 965.027,214.427 966.027,215.094 966.5,216.5C 964.973,216.573 963.973,215.906 963.5,214.5 Z"/></g>
<g><path style="opacity:0.031" fill="#838383" d="M 1284.5,213.5 C 1286.54,214.911 1287.54,216.911 1287.5,219.5C 1285.99,217.819 1284.99,215.819 1284.5,213.5 Z"/></g>
<g><path style="opacity:0.945" fill="#c0c0c0" d="M 702.5,213.5 C 706.081,213.138 709.081,214.138 711.5,216.5C 708.341,215.669 705.341,214.669 702.5,213.5 Z"/></g>
<g><path style="opacity:0.961" fill="#acacac" d="M 1086.5,211.5 C 1086.02,215.805 1084.02,219.139 1080.5,221.5C 1082,217.827 1084,214.494 1086.5,211.5 Z"/></g>
<g><path style="opacity:0.008" fill="#8d8d8d" d="M 901.5,215.5 C 902.016,216.758 901.35,217.758 899.5,218.5C 899.427,216.973 900.094,215.973 901.5,215.5 Z"/></g>
<g><path style="opacity:0.024" fill="#838383" d="M 1452.5,216.5 C 1452.83,216.5 1453.17,216.5 1453.5,216.5C 1454.17,217.167 1454.83,217.833 1455.5,218.5C 1453.82,218.715 1452.82,218.048 1452.5,216.5 Z"/></g>
<g><path style="opacity:0.008" fill="#8d8d8d" d="M 1455.5,218.5 C 1459.53,220.014 1462.53,222.681 1464.5,226.5C 1460.89,224.528 1457.89,221.861 1455.5,218.5 Z"/></g>
<g><path style="opacity:0.188" fill="#939393" d="M 898.5,219.5 C 897.5,220.833 896.5,222.167 895.5,223.5C 894.167,223.833 894.167,224.167 895.5,224.5C 895.265,225.097 894.765,225.43 894,225.5C 892.743,225.15 892.409,224.483 893,223.5C 894.147,221.181 895.981,219.848 898.5,219.5 Z"/></g>
<g><path style="opacity:0.106" fill="#919191" d="M 1156.5,217.5 C 1149.53,222.466 1143.53,228.466 1138.5,235.5C 1140.73,229.741 1144.4,224.908 1149.5,221C 1151.58,219.295 1153.91,218.128 1156.5,217.5 Z"/></g>
<g><path style="opacity:0.106" fill="#949494" d="M 1212.5,216.5 C 1225.07,222.976 1233.4,232.976 1237.5,246.5C 1236.76,246.631 1236.09,246.464 1235.5,246C 1233.31,240.623 1230.48,235.123 1227,229.5C 1221.93,225.25 1217.09,220.916 1212.5,216.5 Z"/></g>
<g><path style="opacity:0.861" fill="#b5b5b5" d="M 12.5,219.5 C 11.8789,224.605 10.8789,229.605 9.5,234.5C 9.16667,234.5 8.83333,234.5 8.5,234.5C 9.34134,229.259 10.6747,224.259 12.5,219.5 Z"/></g>
<g><path style="opacity:0.137" fill="#8e8e8e" d="M 536.5,216.5 C 536.833,216.5 537.167,216.5 537.5,216.5C 532.432,220.059 527.766,224.226 523.5,229C 523.833,229.333 524.167,229.667 524.5,230C 522.153,231.872 520.153,234.039 518.5,236.5C 522.002,227.66 528.002,220.994 536.5,216.5 Z"/></g>
<g><path style="opacity:0.588" fill="#9e9e9e" d="M 1080.5,221.5 C 1079.96,224.912 1078.62,227.912 1076.5,230.5C 1077.04,227.088 1078.38,224.088 1080.5,221.5 Z"/></g>
<g><path style="opacity:0.165" fill="#959595" d="M 900.5,227.5 C 900.511,225.983 901.177,224.816 902.5,224C 900.249,224.207 897.915,224.373 895.5,224.5C 895.5,224.167 895.5,223.833 895.5,223.5C 898.817,222.779 902.151,222.612 905.5,223C 904.22,224.966 902.553,226.466 900.5,227.5 Z"/></g>
<g><path style="opacity:0.445" fill="#939393" d="M 149.5,216.5 C 152.028,218.89 153.528,221.89 154,225.5C 158.189,242.456 152.356,254.123 136.5,260.5C 141.18,257.277 145.68,253.61 150,249.5C 154.706,238.451 154.54,227.451 149.5,216.5 Z"/></g>
<g><path style="opacity:0.209" fill="#888888" d="M 261.5,183.5 C 258.026,184.525 254.36,185.192 250.5,185.5C 250.5,199.167 250.5,212.833 250.5,226.5C 274.672,226.169 298.672,226.502 322.5,227.5C 322.5,227.833 322.5,228.167 322.5,228.5C 297.908,227.51 273.241,227.177 248.5,227.5C 248.897,213.528 249.231,199.195 249.5,184.5C 253.466,183.838 257.466,183.505 261.5,183.5 Z"/></g>
<g><path style="opacity:0.247" fill="#919191" d="M 829.5,221.5 C 828.083,224.669 826.417,227.669 824.5,230.5C 824.884,226.728 826.55,223.728 829.5,221.5 Z"/></g>
<g><path style="opacity:0.945" fill="#ababab" d="M 1464.5,226.5 C 1466.5,226.5 1467.5,227.5 1467.5,229.5C 1466.17,228.833 1465.17,227.833 1464.5,226.5 Z"/></g>
<g><path style="opacity:0.09" fill="#8e8e8e" d="M 1410.5,218.5 C 1398.68,224.956 1390.35,233.956 1385.5,245.5C 1385.34,244.127 1385.51,242.793 1386,241.5C 1391.17,230.496 1399.33,222.829 1410.5,218.5 Z"/></g>
<g><path style="opacity:0.024" fill="#909090" d="M 966.5,216.5 C 969.075,217.728 971.408,219.395 973.5,221.5C 979.869,227.561 984.202,234.895 986.5,243.5C 984.058,243.646 983.391,242.813 984.5,241C 982.319,238.306 980.652,235.306 979.5,232C 975.597,226.405 971.264,221.238 966.5,216.5 Z"/></g>
<g><path style="opacity:0.157" fill="#949494" d="M 900.5,227.5 C 896.441,232.562 891.774,236.895 886.5,240.5C 890.559,235.438 895.226,231.105 900.5,227.5 Z"/></g>
<g><path style="opacity:0.882" fill="#b3b3b3" d="M 1468.5,231.5 C 1469.75,231.577 1470.58,232.244 1471,233.5C 1472.31,237.07 1473.14,240.737 1473.5,244.5C 1472,240.189 1470.33,235.856 1468.5,231.5 Z"/></g>
<g><path style="opacity:0.62" fill="#999999" d="M 1531.5,221.5 C 1533.49,229.403 1534.82,237.403 1535.5,245.5C 1535.5,246.833 1535.5,248.167 1535.5,249.5C 1533.59,240.532 1532.26,231.199 1531.5,221.5 Z"/></g>
<g><path style="opacity:0.773" fill="#b3b3b3" d="M 824.5,230.5 C 822.599,237.051 820.766,243.718 819,250.5C 818.617,251.056 818.117,251.389 817.5,251.5C 818.863,244.078 821.196,237.078 824.5,230.5 Z"/></g>
<g><path style="opacity:0.214" fill="#919191" d="M 1287.5,219.5 C 1289.48,219.859 1290.15,220.692 1289.5,222C 1296.39,233.843 1300.39,246.676 1301.5,260.5C 1298.53,246.316 1293.87,232.65 1287.5,219.5 Z"/></g>
<g><path style="opacity:0.986" fill="#bababa" d="M 1074.5,235.5 C 1074.63,237.554 1073.97,239.221 1072.5,240.5C 1071.96,240.44 1071.62,240.107 1071.5,239.5C 1072.69,238.201 1073.69,236.868 1074.5,235.5 Z"/></g>
<g><path style="opacity:0.992" fill="#e8e8e8" d="M 8.5,234.5 C 8.83333,234.5 9.16667,234.5 9.5,234.5C 9.5,236.5 9.5,238.5 9.5,240.5C 27.5,240.5 45.5,240.5 63.5,240.5C 45.3409,241.497 27.0076,241.83 8.5,241.5C 8.5,239.167 8.5,236.833 8.5,234.5 Z"/></g>
<g><path style="opacity:0.591" fill="#9b9b9b" d="M 74.5,216.5 C 72.2702,221.251 69.7702,225.918 67,230.5C 65.9722,234.473 65.1389,238.473 64.5,242.5C 45.6592,242.83 26.9925,242.497 8.5,241.5C 27.0076,241.83 45.3409,241.497 63.5,240.5C 64.4959,231.138 68.1626,223.138 74.5,216.5 Z"/></g>
<g><path style="opacity:0.051" fill="#959595" d="M 1138.5,235.5 C 1136.91,238.352 1135.58,241.352 1134.5,244.5C 1134.04,245.298 1133.38,245.631 1132.5,245.5C 1133,241.14 1135,237.807 1138.5,235.5 Z"/></g>
<g><path style="opacity:0.548" fill="#9c9c9c" d="M 1039.5,230.5 C 1042.93,238.856 1045.76,247.523 1048,256.5C 1049.92,265.738 1050.75,275.071 1050.5,284.5C 1050.17,284.5 1049.83,284.5 1049.5,284.5C 1048.34,266.231 1045.01,248.231 1039.5,230.5 Z"/></g>
<g><path style="opacity:0.235" fill="#969696" d="M 886.5,240.5 C 884.167,244.833 880.833,248.167 876.5,250.5C 879.5,246.833 882.833,243.5 886.5,240.5 Z"/></g>
<g><path style="opacity:0.135" fill="#929292" d="M 986.5,244.5 C 986.833,245.167 987.167,245.833 987.5,246.5C 985.576,246.289 985.243,245.623 986.5,244.5 Z"/></g>
<g><path style="opacity:0.137" fill="#939393" d="M 675.5,217.5 C 661.737,226.34 654.07,239.007 652.5,255.5C 652.167,255.5 651.833,255.5 651.5,255.5C 651.868,246.026 654.702,237.359 660,229.5C 664.024,223.918 669.19,219.918 675.5,217.5 Z"/></g>
<g><path style="opacity:0.627" fill="#999999" d="M 1132.5,245.5 C 1134.03,246.925 1133.7,247.591 1131.5,247.5C 1131.33,246.508 1131.66,245.842 1132.5,245.5 Z"/></g>
<g><path style="opacity:0.013" fill="#818181" d="M 987.5,248.5 C 987.557,249.609 987.89,250.609 988.5,251.5C 986.448,250.947 986.115,249.947 987.5,248.5 Z"/></g>
<g><path style="opacity:0.181" fill="#888888" d="M 711.5,216.5 C 713.255,217.072 714.922,217.906 716.5,219C 725.743,227.333 730.243,237.833 730,250.5C 730.5,295.832 730.667,341.165 730.5,386.5C 729.667,342.002 729.167,297.335 729,252.5C 727.369,250.045 727.203,247.545 728.5,245C 726.342,243.688 726.009,242.022 727.5,240C 725.955,238.312 724.955,236.312 724.5,234C 724.833,233.667 725.167,233.333 725.5,233C 723.308,230.475 721.475,227.642 720,224.5C 717.271,221.601 714.438,218.934 711.5,216.5 Z"/></g>
<g><path style="opacity:0.313" fill="#8d8d8d" d="M 572.5,216.5 C 574.14,217.32 575.807,218.153 577.5,219C 586.66,227.791 591.16,238.625 591,251.5C 591.171,304.904 591.671,358.237 592.5,411.5C 590.67,358.843 589.837,305.843 590,252.5C 589.77,245.744 588.27,239.744 585.5,234.5C 585.709,233.914 586.043,233.414 586.5,233C 584.308,230.475 582.475,227.642 581,224.5C 578.224,221.551 575.391,218.884 572.5,216.5 Z"/></g>
<g><path style="opacity:0.443" fill="#9e9e9e" d="M 1131.5,247.5 C 1130.94,251.397 1129.94,255.063 1128.5,258.5C 1128.43,254.43 1129.43,250.763 1131.5,247.5 Z"/></g>
<g><path style="opacity:0.475" fill="#939393" d="M 517.5,191.5 C 516.011,193.805 514.511,196.138 513,198.5C 511.899,200.394 510.566,201.061 509,200.5C 508.5,190.506 508.334,180.506 508.5,170.5C 490.007,169.503 471.341,169.17 452.5,169.5C 452.5,249.167 452.5,328.833 452.5,408.5C 471.471,410.488 490.804,411.154 510.5,410.5C 510.333,363.499 510.5,316.499 511,269.5C 511.238,261.403 512.238,253.403 514,245.5C 515.544,242.412 517.044,239.412 518.5,236.5C 517.918,240.744 516.585,244.244 514.5,247C 515.022,247.561 515.355,248.228 515.5,249C 513.981,251.578 513.148,254.411 513,257.5C 511.583,308.819 511.083,360.152 511.5,411.5C 491.5,411.5 471.5,411.5 451.5,411.5C 451.5,330.167 451.5,248.833 451.5,167.5C 469.924,168.43 488.591,168.596 507.5,168C 509.298,178.248 510.132,188.748 510,199.5C 511.758,198.531 512.258,197.364 511.5,196C 513.413,194.276 515.413,192.776 517.5,191.5 Z"/></g>
<g><path style="opacity:0.227" fill="#929292" d="M 876.5,250.5 C 873.305,254.383 870.138,258.383 867,262.5C 864.412,265.2 861.579,267.533 858.5,269.5C 863.803,262.53 869.803,256.196 876.5,250.5 Z"/></g>
<g><path style="opacity:0.191" fill="#979797" d="M 1385.5,245.5 C 1383.89,251.394 1382.72,257.394 1382,263.5C 1381.5,312.832 1381.33,362.166 1381.5,411.5C 1380.5,411.5 1379.5,411.5 1378.5,411.5C 1378.5,411.167 1378.5,410.833 1378.5,410.5C 1379.17,361.332 1379.83,311.998 1380.5,262.5C 1381.3,256.451 1382.97,250.784 1385.5,245.5 Z"/></g>
<g><path style="opacity:0.444" fill="#959595" d="M 1473.5,244.5 C 1474.96,249.934 1475.79,255.6 1476,261.5C 1476.5,311.166 1476.67,360.832 1476.5,410.5C 1496.17,410.5 1515.83,410.5 1535.5,410.5C 1535.5,410.833 1535.5,411.167 1535.5,411.5C 1515.59,412.407 1495.76,412.407 1476,411.5C 1475.67,362.167 1475.33,312.833 1475,263.5C 1474.44,257.165 1473.94,250.832 1473.5,244.5 Z"/></g>
<g><path style="opacity:0.031" fill="#898989" d="M 651.5,255.5 C 651.833,255.5 652.167,255.5 652.5,255.5C 652.214,307.834 651.214,359.834 649.5,411.5C 649.5,411.167 649.5,410.833 649.5,410.5C 649.333,361.832 649.5,313.166 650,264.5C 650.181,261.305 650.681,258.305 651.5,255.5 Z"/></g>
<g><path style="opacity:0.374" fill="#8a8a8a" d="M 817.5,252.5 C 814.096,268.637 812.763,284.97 813.5,301.5C 812.175,297.555 811.508,293.222 811.5,288.5C 811.667,284.167 811.833,279.833 812,275.5C 812.5,275 813,274.5 813.5,274C 812.884,272.6 812.551,271.1 812.5,269.5C 814.082,264.258 815.249,258.925 816,253.5C 816.383,252.944 816.883,252.611 817.5,252.5 Z"/></g>
<g><path style="opacity:0.847" fill="#a7a7a7" d="M 989.5,262.5 C 953.669,263.333 917.669,263.833 881.5,264C 878.99,266.677 876.323,269.177 873.5,271.5C 875.25,268.244 877.583,265.411 880.5,263C 916.832,262.5 953.165,262.333 989.5,262.5 Z"/></g>
<g><path style="opacity:0.557" fill="#a1a1a1" d="M 126.5,263.5 C 113.121,266.55 99.4541,268.55 85.5,269.5C 98.9746,267.105 112.641,265.105 126.5,263.5 Z"/></g>
<g><path style="opacity:0.927" fill="#b9b9b9" d="M 850.5,265.5 C 851.319,268.305 851.819,271.305 852,274.5C 853.129,272.859 854.629,271.859 856.5,271.5C 855.5,273.167 854.167,274.5 852.5,275.5C 850.598,272.663 849.931,269.329 850.5,265.5 Z"/></g>
<g><path style="opacity:0.026" fill="#868686" d="M 1237.5,246.5 C 1241.32,256.071 1243.66,266.071 1244.5,276.5C 1242.83,269.605 1240.83,262.605 1238.5,255.5C 1238.71,254.914 1239.04,254.414 1239.5,254C 1237.17,251.849 1236.5,249.349 1237.5,246.5 Z"/></g>
<g><path style="opacity:0.945" fill="#a7a7a7" d="M 78.5,270.5 C 74.346,271.929 70.0127,272.929 65.5,273.5C 66.5849,271.418 68.0849,271.084 70,272.5C 72.4815,270.686 75.3148,270.02 78.5,270.5 Z"/></g>
<g><path style="opacity:0.877" fill="#b6b6b6" d="M 65.5,273.5 C 61.4848,275.373 57.1515,276.373 52.5,276.5C 56.5749,274.882 60.9082,273.882 65.5,273.5 Z"/></g>
<g><path style="opacity:0.634" fill="#9d9d9d" d="M 787.5,228.5 C 788.323,231.977 788.823,235.644 789,239.5C 789.167,254 789.333,268.5 789.5,283C 789.15,298.207 789.15,313.207 789.5,328C 788.906,328.464 788.239,328.631 787.5,328.5C 788.763,295.187 788.763,261.854 787.5,228.5 Z"/></g>
<g><path style="opacity:0.569" fill="#a2a2a2" d="M 49.5,277.5 C 44.9263,280.277 39.9263,282.277 34.5,283.5C 38.8637,280.16 43.8637,278.16 49.5,277.5 Z"/></g>
<g><path style="opacity:0.356" fill="#919191" d="M 207.5,208.5 C 208.117,208.611 208.617,208.944 209,209.5C 209.912,213.795 210.579,218.128 211,222.5C 211.189,264.179 211.689,305.846 212.5,347.5C 211.679,353.923 212.512,360.257 215,366.5C 219.923,371.955 226.09,373.955 233.5,372.5C 233.814,385.55 233.481,398.55 232.5,411.5C 217.211,413.31 201.878,413.81 186.5,413C 182.205,412.431 178.205,411.264 174.5,409.5C 179.098,409.273 183.432,410.106 187.5,412C 202.208,412.745 216.875,412.245 231.5,410.5C 232.48,398.217 232.813,385.884 232.5,373.5C 222.307,375.736 215.473,372.069 212,362.5C 210.713,316.523 210.047,270.523 210,224.5C 209.71,219.365 208.876,214.365 207.5,209.5C 207.5,209.167 207.5,208.833 207.5,208.5 Z"/></g>
<g><path style="opacity:0.24" fill="#8e8e8e" d="M 1128.5,258.5 C 1125.36,275.42 1124.86,292.42 1127,309.5C 1127.59,317.254 1129.75,324.421 1133.5,331C 1135.78,335.764 1138.11,340.93 1140.5,346.5C 1132.05,336.131 1127.22,324.131 1126,310.5C 1124.68,299.86 1124.35,289.193 1125,278.5C 1125.22,271.532 1126.38,264.865 1128.5,258.5 Z"/></g>
<g><path style="opacity:0.106" fill="#919191" d="M 850.5,265.5 C 849.931,269.329 850.598,272.663 852.5,275.5C 851.791,276.404 850.791,276.737 849.5,276.5C 849.665,273.482 849.498,270.482 849,267.5C 839.246,277.758 829.08,287.424 818.5,296.5C 828.553,285.446 839.219,275.113 850.5,265.5 Z"/></g>
<g><path style="opacity:0.91" fill="#bebebe" d="M 150.5,288.5 C 148.819,290.008 146.819,291.008 144.5,291.5C 144.167,291.5 143.833,291.5 143.5,291.5C 145.426,289.707 147.759,288.707 150.5,288.5 Z"/></g>
<g><path style="opacity:0.322" fill="#919191" d="M 143.5,291.5 C 143.833,291.5 144.167,291.5 144.5,291.5C 142.165,294.165 139.165,295.498 135.5,295.5C 138.101,294.199 140.768,292.866 143.5,291.5 Z"/></g>
<g><path style="opacity:0.885" fill="#a7a7a7" d="M 1049.5,284.5 C 1049.83,284.5 1050.17,284.5 1050.5,284.5C 1051.65,289.65 1051.82,294.984 1051,300.5C 1050.62,301.056 1050.12,301.389 1049.5,301.5C 1049.5,295.833 1049.5,290.167 1049.5,284.5 Z"/></g>
<g><path style="opacity:0.78" fill="#9a9a9a" d="M 34.5,283.5 C 25.8581,288.996 18.1914,295.663 11.5,303.5C 13.3203,298.875 16.3203,295.042 20.5,292C 24.7675,288.373 29.4341,285.539 34.5,283.5 Z"/></g>
<g><path style="opacity:0.707" fill="#a6a6a6" d="M 131.5,296.5 C 129.095,297.768 126.428,298.435 123.5,298.5C 125.838,296.96 128.505,296.294 131.5,296.5 Z"/></g>
<g><path style="opacity:0.104" fill="#939393" d="M 1301.5,260.5 C 1303.69,262.282 1304.02,264.448 1302.5,267C 1303,267.5 1303.5,268 1304,268.5C 1305.94,284.209 1305.61,299.876 1303,315.5C 1301.68,320.664 1300.18,325.664 1298.5,330.5C 1303.39,307.331 1304.39,283.997 1301.5,260.5 Z"/></g>
<g><path style="opacity:0.882" fill="#bbbbbb" d="M 123.5,298.5 C 119.409,299.895 115.076,300.562 110.5,300.5C 114.591,299.105 118.924,298.438 123.5,298.5 Z"/></g>
<g><path style="opacity:0.157" fill="#9e9e9e" d="M 879.5,301.5 C 879.998,306.152 880.331,310.819 880.5,315.5C 878.611,312.322 877.611,308.656 877.5,304.5C 877.64,302.97 878.307,301.97 879.5,301.5 Z"/></g>
<g><path style="opacity:0.029" fill="#838383" d="M 1244.5,300.5 C 1243.73,303.096 1243.4,305.763 1243.5,308.5C 1242.85,307.551 1242.51,306.385 1242.5,305C 1242.31,302.992 1242.97,301.492 1244.5,300.5 Z"/></g>
<g><path style="opacity:0.827" fill="#9f9f9f" d="M 870.5,274.5 C 855.12,290.379 839.62,306.046 824,321.5C 824.282,328.744 825.782,335.744 828.5,342.5C 826.52,341.152 825.353,339.152 825,336.5C 823.352,331.256 822.685,325.923 823,320.5C 829.613,313.887 836.279,307.221 843,300.5C 843.483,299.552 843.649,298.552 843.5,297.5C 844.552,297.649 845.552,297.483 846.5,297C 854.088,288.907 862.088,281.407 870.5,274.5 Z"/></g>
<g><path style="opacity:0.063" fill="#8b8b8b" d="M 99.5,302.5 C 89.9777,306.327 80.3111,310.327 70.5,314.5C 73.079,311.865 76.079,309.699 79.5,308C 86.0969,305.851 92.7636,304.018 99.5,302.5 Z"/></g>
<g><path style="opacity:0.059" fill="#919191" d="M 1072.5,241.5 C 1063.22,273.187 1063.22,304.854 1072.5,336.5C 1070.88,334.849 1069.54,332.849 1068.5,330.5C 1068.71,329.914 1069.04,329.414 1069.5,329C 1068.77,326.47 1067.77,323.97 1066.5,321.5C 1062.27,296.406 1062.94,271.739 1068.5,247.5C 1069.54,245.151 1070.88,243.151 1072.5,241.5 Z"/></g>
<g><path style="opacity:1" fill="#fafafa" d="M 818.5,323.5 C 818.5,324.167 818.167,324.5 817.5,324.5C 816.5,324.833 815.833,325.5 815.5,326.5C 809.785,332.881 803.785,338.881 797.5,344.5C 796.833,345.167 796.167,345.833 795.5,346.5C 794.503,367.327 794.169,388.327 794.5,409.5C 788.974,409.179 783.64,409.512 778.5,410.5C 763.496,410.333 748.496,410.5 733.5,411C 732.944,411.383 732.611,411.883 732.5,412.5C 732.5,413.167 732.167,413.5 731.5,413.5C 729.5,413.5 728.5,414.5 728.5,416.5C 727.205,417.488 725.872,418.488 724.5,419.5C 723.167,420.167 722.167,421.167 721.5,422.5C 719.167,425.5 716.5,428.167 713.5,430.5C 705.968,436.465 698.968,443.132 692.5,450.5C 689.167,454.5 685.5,458.167 681.5,461.5C 679.821,461.285 678.821,461.952 678.5,463.5C 678.5,464.167 678.167,464.5 677.5,464.5C 676.5,464.833 675.833,465.5 675.5,466.5C 674.5,466.833 673.833,467.5 673.5,468.5C 671.833,470.833 669.833,472.833 667.5,474.5C 662.729,478.062 658.395,482.062 654.5,486.5C 650.167,491.5 645.5,496.167 640.5,500.5C 637.833,501.167 636.167,502.833 635.5,505.5C 632.792,508.209 629.792,510.542 626.5,512.5C 625.094,512.973 624.427,513.973 624.5,515.5C 624.167,516.5 623.5,517.167 622.5,517.5C 614.569,522.472 607.902,528.806 602.5,536.5C 599.911,537.419 597.911,539.086 596.5,541.5C 594.192,543.471 591.858,545.471 589.5,547.5C 586.167,550.167 583.167,553.167 580.5,556.5C 579.5,556.833 578.833,557.5 578.5,558.5C 571.175,564.492 564.175,570.825 557.5,577.5C 556.475,577.103 556.308,576.437 557,575.5C 564.204,568.154 570.704,560.487 576.5,552.5C 579.167,550.167 581.833,547.833 584.5,545.5C 587.977,543.36 590.311,540.36 591.5,536.5C 591.5,535.833 591.833,535.5 592.5,535.5C 596.167,533.833 598.833,531.167 600.5,527.5C 601.833,525.5 603.5,523.833 605.5,522.5C 606.906,522.027 607.573,521.027 607.5,519.5C 607.5,518.833 607.833,518.5 608.5,518.5C 618.172,508.827 627.506,498.827 636.5,488.5C 639.5,486.167 642.167,483.5 644.5,480.5C 645.833,478.5 647.5,476.833 649.5,475.5C 655.862,468.137 662.862,461.471 670.5,455.5C 670.846,457.363 671.846,458.196 673.5,458C 682.369,449.298 691.036,440.465 699.5,431.5C 703.491,427.543 707.491,423.543 711.5,419.5C 717.5,414.167 723.167,408.5 728.5,402.5C 730.19,402.144 731.19,401.144 731.5,399.5C 732.239,399.631 732.906,399.464 733.5,399C 736.494,396.03 739.161,392.863 741.5,389.5C 768.056,364.446 794.222,338.78 820,312.5C 819.914,316.187 819.414,319.854 818.5,323.5 Z"/></g>
<g><path style="opacity:0.233" fill="#878787" d="M 6.5,312.5 C 6.01131,313.995 5.34464,315.329 4.5,316.5C 4.15684,314.517 4.82351,313.183 6.5,312.5 Z"/></g>
<g><path style="opacity:0.446" fill="#969696" d="M 152.5,286.5 C 153.189,285.226 154.023,285.226 155,286.5C 155.2,301.503 154.867,316.503 154,331.5C 153.377,337.364 151.544,342.697 148.5,347.5C 150.308,341.602 151.808,335.602 153,329.5C 153.368,316.806 153.868,304.306 154.5,292C 154.046,289.97 153.38,288.137 152.5,286.5 Z"/></g>
<g><path style="opacity:0.549" fill="#9e9e9e" d="M 4.5,316.5 C 3.17584,323.833 1.50917,330.833 -0.5,337.5C -0.5,336.833 -0.5,336.167 -0.5,335.5C 0.277441,328.952 1.94411,322.618 4.5,316.5 Z"/></g>
<g><path style="opacity:0.298" fill="#8c8c8c" d="M 1243.5,309.5 C 1242.24,316.936 1240.41,324.27 1238,331.5C 1235.1,336.755 1231.93,341.755 1228.5,346.5C 1234.63,333.99 1239.63,321.657 1243.5,309.5 Z"/></g>
<g><path style="opacity:0.122" fill="#8f8f8f" d="M 817.5,324.5 C 818.66,326.203 817.993,326.869 815.5,326.5C 815.833,325.5 816.5,324.833 817.5,324.5 Z"/></g>
<g><path style="opacity:0.706" fill="#9d9d9d" d="M 880.5,315.5 C 882.357,322.567 884.69,329.567 887.5,336.5C 883.189,330.294 880.855,323.294 880.5,315.5 Z"/></g>
<g><path style="opacity:0.992" fill="#dfdfdf" d="M 508.5,170.5 C 490.167,170.5 471.833,170.5 453.5,170.5C 453.833,250.002 453.499,329.335 452.5,408.5C 452.5,328.833 452.5,249.167 452.5,169.5C 471.341,169.17 490.007,169.503 508.5,170.5 Z"/></g>
<g><path style="opacity:0.173" fill="#949494" d="M 787.5,328.5 C 784.145,333.855 779.812,338.188 774.5,341.5C 778.548,336.785 782.881,332.452 787.5,328.5 Z"/></g>
<g><path style="opacity:0.224" fill="#888888" d="M 1046.5,338.5 C 1037.52,337.168 1028.19,336.502 1018.5,336.5C 1008.99,336.5 999.661,336.834 990.5,337.5C 990.167,337.5 989.833,337.5 989.5,337.5C 998.809,336.168 1008.48,335.501 1018.5,335.5C 1028.17,335.667 1037.83,335.833 1047.5,336C 1048.57,337.159 1048.23,337.992 1046.5,338.5 Z"/></g>
<g><path style="opacity:0.284" fill="#8e8e8e" d="M 65.5,319.5 C 58.9938,331.389 57.9938,343.722 62.5,356.5C 57.7664,346.868 57.2664,336.868 61,326.5C 62.0259,323.761 63.5259,321.428 65.5,319.5 Z"/></g>
<g><path style="opacity:0.949" fill="#c8c8c8" d="M 990.5,337.5 C 999.661,336.834 1008.99,336.5 1018.5,336.5C 1028.19,336.502 1037.52,337.168 1046.5,338.5C 1046.41,340.786 1045.74,342.786 1044.5,344.5C 1044.67,342.139 1045.01,339.806 1045.5,337.5C 1027.17,337.5 1008.83,337.5 990.5,337.5 Z"/></g>
<g><path style="opacity:0.784" fill="#999999" d="M 887.5,336.5 C 888.906,336.973 889.573,337.973 889.5,339.5C 888.094,339.027 887.427,338.027 887.5,336.5 Z"/></g>
<g><path style="opacity:0.035" fill="#868686" d="M 1072.5,337.5 C 1072.83,338.167 1073.17,338.833 1073.5,339.5C 1071.58,339.289 1071.24,338.623 1072.5,337.5 Z"/></g>
<g><path style="opacity:0.2" fill="#888888" d="M 1297.5,334.5 C 1297.47,337.916 1296.47,340.916 1294.5,343.5C 1294.93,340.215 1295.93,337.215 1297.5,334.5 Z"/></g>
<g><path style="opacity:0.18" fill="#898989" d="M 889.5,339.5 C 891.9,341.296 893.567,343.63 894.5,346.5C 892.1,344.704 890.433,342.37 889.5,339.5 Z"/></g>
<g><path style="opacity:0.391" fill="#949494" d="M 797.5,344.5 C 796.532,366.8 796.198,389.134 796.5,411.5C 775.143,412.052 753.81,412.386 732.5,412.5C 732.611,411.883 732.944,411.383 733.5,411C 748.496,410.5 763.496,410.333 778.5,410.5C 784.167,410.5 789.833,410.5 795.5,410.5C 795.5,389.167 795.5,367.833 795.5,346.5C 796.167,345.833 796.833,345.167 797.5,344.5 Z"/></g>
<g><path style="opacity:0.745" fill="#aaaaaa" d="M 1140.5,346.5 C 1141.91,346.973 1142.57,347.973 1142.5,349.5C 1141.09,349.027 1140.43,348.027 1140.5,346.5 Z"/></g>
<g><path style="opacity:0.506" fill="#999999" d="M 1228.5,346.5 C 1228.57,348.027 1227.91,349.027 1226.5,349.5C 1226.43,347.973 1227.09,346.973 1228.5,346.5 Z"/></g>
<g><path style="opacity:0.671" fill="#9f9f9f" d="M 147.5,349.5 C 147.672,350.492 147.338,351.158 146.5,351.5C 144.969,350.075 145.302,349.409 147.5,349.5 Z"/></g>
<g><path style="opacity:0.965" fill="#b5b5b5" d="M 895.5,348.5 C 896.833,349.167 897.833,350.167 898.5,351.5C 896.5,351.5 895.5,350.5 895.5,348.5 Z"/></g>
<g><path style="opacity:0.02" fill="#999999" d="M 988.5,340.5 C 987.027,343.447 985.527,346.447 984,349.5C 982.264,352.739 979.764,355.073 976.5,356.5C 980.905,351.434 984.905,346.101 988.5,340.5 Z"/></g>
<g><path style="opacity:0.984" fill="#b4b4b4" d="M 1142.5,349.5 C 1145.19,351.862 1147.86,354.196 1150.5,356.5C 1146.6,355.607 1143.94,353.274 1142.5,349.5 Z"/></g>
<g><path style="opacity:0.965" fill="#bebebe" d="M 1226.5,349.5 C 1224.83,353.167 1222.17,355.833 1218.5,357.5C 1220.83,354.5 1223.5,351.833 1226.5,349.5 Z"/></g>
<g><path style="opacity:0.192" fill="#979797" d="M 770.5,346.5 C 762.473,355.86 753.806,364.527 744.5,372.5C 752.104,363.813 760.104,355.313 768.5,347C 769.094,346.536 769.761,346.369 770.5,346.5 Z"/></g>
<g><path style="opacity:0.514" fill="#979797" d="M 1075.5,344.5 C 1078.11,350.636 1081.11,356.636 1084.5,362.5C 1083.5,362.586 1082.67,362.252 1082,361.5C 1078.69,356.228 1076.53,350.561 1075.5,344.5 Z"/></g>
<g><path style="opacity:0.275" fill="#8d8d8d" d="M 1294.5,343.5 C 1293.25,350.341 1290.25,356.008 1285.5,360.5C 1288.12,355.489 1290.45,350.322 1292.5,345C 1292.84,343.97 1293.5,343.47 1294.5,343.5 Z"/></g>
<g><path style="opacity:0.533" fill="#9c9c9c" d="M 829.5,344.5 C 834.311,354.789 839.644,364.789 845.5,374.5C 837.568,365.974 832.235,355.974 829.5,344.5 Z"/></g>
<g><path style="opacity:0.949" fill="#b9b9b9" d="M 901.5,354.5 C 904.37,355.433 906.704,357.1 908.5,359.5C 905.281,358.931 902.948,357.264 901.5,354.5 Z"/></g>
<g><path style="opacity:0.608" fill="#a3a3a3" d="M 62.5,356.5 C 63.9063,356.973 64.573,357.973 64.5,359.5C 63.0937,359.027 62.427,358.027 62.5,356.5 Z"/></g>
<g><path style="opacity:0.984" fill="#bcbcbc" d="M 146.5,351.5 C 145.297,353.395 144.131,355.395 143,357.5C 141.871,359.141 140.371,360.141 138.5,360.5C 140.825,357.14 143.492,354.14 146.5,351.5 Z"/></g>
<g><path style="opacity:0.957" fill="#b5b5b5" d="M 976.5,356.5 C 973.643,360.096 969.976,362.429 965.5,363.5C 968.989,360.92 972.656,358.587 976.5,356.5 Z"/></g>
<g><path style="opacity:0.765" fill="#bcbcbc" d="M 1152.5,358.5 C 1153.71,358.932 1154.71,359.599 1155.5,360.5C 1153.82,360.715 1152.82,360.048 1152.5,358.5 Z"/></g>
<g><path style="opacity:0.753" fill="#a2a2a2" d="M 908.5,359.5 C 910.179,359.285 911.179,359.952 911.5,361.5C 910.29,361.068 909.29,360.401 908.5,359.5 Z"/></g>
<g><path style="opacity:0.627" fill="#9b9b9b" d="M 1210.5,362.5 C 1209.22,363.931 1207.55,364.598 1205.5,364.5C 1206.78,363.069 1208.45,362.402 1210.5,362.5 Z"/></g>
<g><path style="opacity:0.988" fill="#bdbdbd" d="M 135.5,362.5 C 135.179,364.048 134.179,364.715 132.5,364.5C 133.29,363.599 134.29,362.932 135.5,362.5 Z"/></g>
<g><path style="opacity:0.514" fill="#989898" d="M 965.5,363.5 C 964.22,364.931 962.553,365.598 960.5,365.5C 961.78,364.069 963.447,363.402 965.5,363.5 Z"/></g>
<g><path style="opacity:0.098" fill="#919191" d="M 1044.5,344.5 C 1042.62,354.046 1038.96,362.213 1033.5,369C 1033.83,369.333 1034.17,369.667 1034.5,370C 1033.55,370.483 1032.55,370.649 1031.5,370.5C 1035.95,361.764 1040.29,353.097 1044.5,344.5 Z"/></g>
<g><path style="opacity:0.641" fill="#9f9f9f" d="M 1158.5,362.5 C 1160.4,362.796 1162.07,363.463 1163.5,364.5C 1161.3,364.88 1159.64,364.213 1158.5,362.5 Z"/></g>
<g><path style="opacity:0.539" fill="#9a9a9a" d="M -0.5,349.5 C 1.6717,358.288 4.00503,367.288 6.5,376.5C 4.87143,374.142 3.70477,371.476 3,368.5C 1.6145,362.735 0.447831,357.069 -0.5,351.5C -0.5,350.833 -0.5,350.167 -0.5,349.5 Z"/></g>
<g><path style="opacity:0.961" fill="#d7d7d7" d="M 795.5,346.5 C 795.5,367.833 795.5,389.167 795.5,410.5C 789.833,410.5 784.167,410.5 778.5,410.5C 783.64,409.512 788.974,409.179 794.5,409.5C 794.169,388.327 794.503,367.327 795.5,346.5 Z"/></g>
<g><path style="opacity:0.452" fill="#919191" d="M 1163.5,364.5 C 1168.39,365.01 1173.06,366.01 1177.5,367.5C 1172.5,367.502 1167.83,366.502 1163.5,364.5 Z"/></g>
<g><path style="opacity:0.616" fill="#a2a2a2" d="M 64.5,359.5 C 77.88,371.422 93.5466,375.589 111.5,372C 118.716,370.056 125.716,367.556 132.5,364.5C 129.438,367.487 125.771,369.654 121.5,371C 103.435,376.327 86.1015,374.66 69.5,366C 67.2101,364.223 65.5434,362.056 64.5,359.5 Z"/></g>
<g><path style="opacity:0.335" fill="#a4a4a4" d="M 1205.5,364.5 C 1205.39,365.117 1205.06,365.617 1204.5,366C 1198.08,368.127 1191.41,369.293 1184.5,369.5C 1181.73,369.471 1179.4,368.805 1177.5,367.5C 1186.98,367.808 1196.32,366.808 1205.5,364.5 Z"/></g>
<g><path style="opacity:0.234" fill="#989898" d="M 911.5,361.5 C 926.025,367.179 941.025,368.846 956.5,366.5C 954.502,367.148 952.502,367.981 950.5,369C 938.548,369.767 926.882,368.1 915.5,364C 913.934,363.392 912.6,362.558 911.5,361.5 Z"/></g>
<g><path style="opacity:0.894" fill="#a5a5a5" d="M 818.5,323.5 C 819.414,319.854 819.914,316.187 820,312.5C 794.222,338.78 768.056,364.446 741.5,389.5C 767.271,363.228 793.271,337.062 819.5,311C 820.448,310.517 821.448,310.351 822.5,310.5C 822.859,312.766 822.192,314.599 820.5,316C 821.591,318.064 821.758,320.231 821,322.5C 820.329,323.252 819.496,323.586 818.5,323.5 Z"/></g>
<g><path style="opacity:0.175" fill="#929292" d="M 744.5,372.5 C 743.483,374.911 741.816,376.578 739.5,377.5C 740.517,375.089 742.184,373.422 744.5,372.5 Z"/></g>
<g><path style="opacity:0.22" fill="#9a9a9a" d="M 1283.5,364.5 C 1280.99,370.348 1277.32,375.348 1272.5,379.5C 1275.79,374.214 1279.45,369.214 1283.5,364.5 Z"/></g>
<g><path style="opacity:0.843" fill="#a5a5a5" d="M 1085.5,365.5 C 1090.87,371.54 1095.87,377.874 1100.5,384.5C 1094.36,379.034 1089.36,372.701 1085.5,365.5 Z"/></g>
<g><path style="opacity:0.098" fill="#939393" d="M 847.5,376.5 C 849.522,377.507 850.855,379.174 851.5,381.5C 849.124,380.794 847.79,379.127 847.5,376.5 Z"/></g>
<g><path style="opacity:0.22" fill="#949494" d="M 739.5,377.5 C 739.019,380.397 737.352,382.064 734.5,382.5C 735.517,380.089 737.184,378.422 739.5,377.5 Z"/></g>
<g><path style="opacity:0.89" fill="#b8b8b8" d="M 6.5,376.5 C 7.37644,376.369 8.04311,376.702 8.5,377.5C 10.1431,380.445 11.4764,383.445 12.5,386.5C 10.0116,383.534 8.01164,380.201 6.5,376.5 Z"/></g>
<g><path style="opacity:0.416" fill="#9c9c9c" d="M 851.5,381.5 C 853.5,381.5 854.5,382.5 854.5,384.5C 852.81,384.144 851.81,383.144 851.5,381.5 Z"/></g>
<g><path style="opacity:0.129" fill="#969696" d="M 1025.5,378.5 C 1023.83,382.167 1021.17,384.833 1017.5,386.5C 1019.83,383.5 1022.5,380.833 1025.5,378.5 Z"/></g>
<g><path style="opacity:0.016" fill="#8d8d8d" d="M 734.5,382.5 C 734.573,384.027 733.906,385.027 732.5,385.5C 732.427,383.973 733.094,382.973 734.5,382.5 Z"/></g>
<g><path style="opacity:0.157" fill="#989898" d="M 1270.5,381.5 C 1269.81,384.189 1268.14,385.856 1265.5,386.5C 1266.88,384.451 1268.55,382.785 1270.5,381.5 Z"/></g>
<g><path style="opacity:0.631" fill="#909090" d="M 13.5,387.5 C 18.1667,392.833 23.1667,397.833 28.5,402.5C 22.9769,399.49 18.1436,395.49 14,390.5C 13.5172,389.552 13.3505,388.552 13.5,387.5 Z"/></g>
<g><path style="opacity:0.192" fill="#a0a0a0" d="M 154.5,381.5 C 155.209,380.596 156.209,380.263 157.5,380.5C 157.878,388.233 160.212,395.233 164.5,401.5C 162.26,400.432 160.426,398.766 159,396.5C 157.173,391.478 155.673,386.478 154.5,381.5 Z"/></g>
<g><path style="opacity:0.302" fill="#939393" d="M 1102.5,386.5 C 1107.28,388.891 1111.28,392.224 1114.5,396.5C 1111.14,395.316 1108.14,393.483 1105.5,391C 1104.61,389.385 1103.61,387.885 1102.5,386.5 Z"/></g>
<g><path style="opacity:0.71" fill="#acacac" d="M 741.5,389.5 C 739.161,392.863 736.494,396.03 733.5,399C 732.906,399.464 732.239,399.631 731.5,399.5C 734.167,395.5 737.5,392.167 741.5,389.5 Z"/></g>
<g><path style="opacity:0.106" fill="#8f8f8f" d="M 150.5,386.5 C 147.405,393.263 142.405,397.93 135.5,400.5C 141.129,396.539 146.129,391.873 150.5,386.5 Z"/></g>
<g><path style="opacity:0.145" fill="#949494" d="M 858.5,388.5 C 868.643,396.226 879.31,402.893 890.5,408.5C 888.436,408.313 886.436,407.813 884.5,407C 878.147,403.301 871.813,399.634 865.5,396C 862.961,393.63 860.628,391.13 858.5,388.5 Z"/></g>
<g><path style="opacity:0.216" fill="#929292" d="M 1263.5,388.5 C 1262.07,391.764 1259.74,394.264 1256.5,396C 1252.26,398.428 1247.92,400.594 1243.5,402.5C 1250.13,397.846 1256.8,393.179 1263.5,388.5 Z"/></g>
<g><path style="opacity:0.973" fill="#b0b0b0" d="M 731.5,399.5 C 731.19,401.144 730.19,402.144 728.5,402.5C 728.5,400.5 729.5,399.5 731.5,399.5 Z"/></g>
<g><path style="opacity:0.373" fill="#909090" d="M 1114.5,396.5 C 1118.17,398 1121.51,400 1124.5,402.5C 1120.49,401.502 1117.16,399.502 1114.5,396.5 Z"/></g>
<g><path style="opacity:0.925" fill="#a5a5a5" d="M 30.5,403.5 C 33.225,403.937 35.225,405.27 36.5,407.5C 33.733,407.13 31.733,405.796 30.5,403.5 Z"/></g>
<g><path style="opacity:0.024" fill="#999999" d="M 131.5,403.5 C 126.281,407.773 120.281,410.44 113.5,411.5C 119.15,408.274 125.15,405.607 131.5,403.5 Z"/></g>
<g><path style="opacity:0.314" fill="#8f8f8f" d="M 166.5,403.5 C 169.205,405.512 171.872,407.512 174.5,409.5C 170.689,408.937 168.023,406.937 166.5,403.5 Z"/></g>
<g><path style="opacity:0.035" fill="#9a9a9a" d="M 1130.5,405.5 C 1136.32,406.546 1141.65,408.546 1146.5,411.5C 1141.55,410.684 1136.71,409.35 1132,407.5C 1130.97,407.164 1130.47,406.497 1130.5,405.5 Z"/></g>
<g><path style="opacity:0.243" fill="#8a8a8a" d="M 36.5,407.5 C 38.153,407.66 39.4863,408.326 40.5,409.5C 38.6203,409.771 37.287,409.104 36.5,407.5 Z"/></g>
<g><path style="opacity:0.214" fill="#999999" d="M 1241.5,403.5 C 1231.6,410.069 1220.6,413.736 1208.5,414.5C 1214,412.873 1219.67,411.373 1225.5,410C 1230.63,407.344 1235.97,405.177 1241.5,403.5 Z"/></g>
<g><path style="opacity:0.973" fill="#ababab" d="M 40.5,409.5 C 43.0101,409.054 45.0101,409.72 46.5,411.5C 44.2143,411.405 42.2143,410.738 40.5,409.5 Z"/></g>
<g><path style="opacity:0.373" fill="#9c9c9c" d="M 890.5,408.5 C 894.077,408.145 897.077,409.145 899.5,411.5C 896.084,411.472 893.084,410.472 890.5,408.5 Z"/></g>
<g><path style="opacity:0.329" fill="#959595" d="M 1014.5,390.5 C 1012.29,393.423 1009.62,395.923 1006.5,398C 1001.13,401.014 995.801,404.014 990.5,407C 984.746,409.715 978.746,411.548 972.5,412.5C 981.851,408.664 991.185,404.497 1000.5,400C 1005.07,396.586 1009.73,393.42 1014.5,390.5 Z"/></g>
<g><path style="opacity:0.775" fill="#9b9b9b" d="M 322.5,227.5 C 323.499,288.331 323.832,349.331 323.5,410.5C 344.5,410.5 365.5,410.5 386.5,410.5C 386.5,410.833 386.5,411.167 386.5,411.5C 365.361,411.595 344.027,411.595 322.5,411.5C 321.968,350.638 321.968,289.638 322.5,228.5C 322.5,228.167 322.5,227.833 322.5,227.5 Z"/></g>
<g><path style="opacity:0.551" fill="#959595" d="M 649.5,410.5 C 649.5,410.833 649.5,411.167 649.5,411.5C 630.215,411.905 611.215,411.905 592.5,411.5C 611.466,410.538 630.466,410.204 649.5,410.5 Z"/></g>
<g><path style="opacity:0.554" fill="#999999" d="M 1323.5,411.5 C 1341.66,410.503 1359.99,410.17 1378.5,410.5C 1378.5,410.833 1378.5,411.167 1378.5,411.5C 1360.48,412.061 1342.48,412.061 1324.5,411.5C 1324.17,411.5 1323.83,411.5 1323.5,411.5 Z"/></g>
<g><path style="opacity:0.718" fill="#a2a2a2" d="M 972.5,412.5 C 969.091,413.903 965.425,414.57 961.5,414.5C 964.909,413.097 968.575,412.43 972.5,412.5 Z"/></g>
<g><path style="opacity:0.708" fill="#a2a2a2" d="M 1150.5,412.5 C 1153.78,412.42 1156.78,413.087 1159.5,414.5C 1156.22,414.58 1153.22,413.913 1150.5,412.5 Z"/></g>
<g><path style="opacity:0.922" fill="#b5b5b5" d="M 728.5,402.5 C 723.167,408.5 717.5,414.167 711.5,419.5C 711.5,419.167 711.5,418.833 711.5,418.5C 716.557,412.441 722.224,407.107 728.5,402.5 Z"/></g>
<g><path style="opacity:0.29" fill="#9c9c9c" d="M 731.5,413.5 C 730.833,414.833 729.833,415.833 728.5,416.5C 728.5,414.5 729.5,413.5 731.5,413.5 Z"/></g>
<g><path style="opacity:0.84" fill="#aeaeae" d="M 113.5,411.5 C 111.438,412.776 109.104,413.61 106.5,414C 90.878,416.766 75.2114,417.1 59.5,415C 56.2026,414.796 53.2026,413.963 50.5,412.5C 71.568,416.64 92.568,416.306 113.5,411.5 Z"/></g>
<g><path style="opacity:0.844" fill="#b0b0b0" d="M 903.5,412.5 C 922.734,415.608 942.068,416.274 961.5,414.5C 959.369,415.314 957.036,415.814 954.5,416C 943.5,416.667 932.5,416.667 921.5,416C 915.188,415.77 909.188,414.604 903.5,412.5 Z"/></g>
<g><path style="opacity:0.42" fill="#939393" d="M 711.5,418.5 C 711.5,418.833 711.5,419.167 711.5,419.5C 707.491,423.543 703.491,427.543 699.5,431.5C 699.167,431.5 698.833,431.5 698.5,431.5C 698.369,430.761 698.536,430.094 699,429.5C 702.747,425.321 706.913,421.654 711.5,418.5 Z"/></g>
<g><path style="opacity:0.114" fill="#8e8e8e" d="M 724.5,419.5 C 724.5,421.5 723.5,422.5 721.5,422.5C 722.167,421.167 723.167,420.167 724.5,419.5 Z"/></g>
<g><path style="opacity:0.953" fill="#b5b5b5" d="M 698.5,431.5 C 698.833,431.5 699.167,431.5 699.5,431.5C 691.036,440.465 682.369,449.298 673.5,458C 671.846,458.196 670.846,457.363 670.5,455.5C 671.167,455.5 671.833,455.5 672.5,455.5C 672.435,455.938 672.601,456.272 673,456.5C 681.368,447.964 689.868,439.631 698.5,431.5 Z"/></g>
<g><path style="opacity:0.016" fill="#8a8a8a" d="M 713.5,430.5 C 711.384,434.117 708.717,437.284 705.5,440C 701.273,443.737 696.94,447.237 692.5,450.5C 698.968,443.132 705.968,436.465 713.5,430.5 Z"/></g>
<g><path style="opacity:0.071" fill="#999999" d="M 681.5,461.5 C 681.027,462.906 680.027,463.573 678.5,463.5C 678.821,461.952 679.821,461.285 681.5,461.5 Z"/></g>
<g><path style="opacity:0.78" fill="#9a9a9a" d="M 672.5,455.5 C 671.833,455.5 671.167,455.5 670.5,455.5C 662.862,461.471 655.862,468.137 649.5,475.5C 649.351,474.448 649.517,473.448 650,472.5C 657.13,464.862 664.63,457.862 672.5,451.5C 672.5,452.833 672.5,454.167 672.5,455.5 Z"/></g>
<g><path style="opacity:0.314" fill="#999999" d="M 677.5,464.5 C 678.66,466.203 677.993,466.869 675.5,466.5C 675.833,465.5 676.5,464.833 677.5,464.5 Z"/></g>
<g><path style="opacity:0.263" fill="#989898" d="M 675.5,466.5 C 675.5,467.833 674.833,468.5 673.5,468.5C 673.833,467.5 674.5,466.833 675.5,466.5 Z"/></g>
<g><path style="opacity:0.008" fill="#8a8a8a" d="M 667.5,474.5 C 664.446,479.887 660.113,483.887 654.5,486.5C 658.395,482.062 662.729,478.062 667.5,474.5 Z"/></g>
<g><path style="opacity:0.686" fill="#979797" d="M 644.5,480.5 C 642.167,483.5 639.5,486.167 636.5,488.5C 638.167,484.833 640.833,482.167 644.5,480.5 Z"/></g>
<g><path style="opacity:0.655" fill="#949494" d="M 636.5,488.5 C 627.506,498.827 618.172,508.827 608.5,518.5C 616.789,507.544 626.122,497.544 636.5,488.5 Z"/></g>
<g><path style="opacity:0.149" fill="#949494" d="M 640.5,500.5 C 639.167,502.5 637.5,504.167 635.5,505.5C 636.167,502.833 637.833,501.167 640.5,500.5 Z"/></g>
<g><path style="opacity:0.157" fill="#929292" d="M 626.5,512.5 C 626.573,514.027 625.906,515.027 624.5,515.5C 624.427,513.973 625.094,512.973 626.5,512.5 Z"/></g>
<g><path style="opacity:0.859" fill="#b3b3b3" d="M 607.5,519.5 C 607.573,521.027 606.906,522.027 605.5,522.5C 605.427,520.973 606.094,519.973 607.5,519.5 Z"/></g>
<g><path style="opacity:0.2" fill="#949494" d="M 622.5,517.5 C 622.141,519.371 621.141,520.871 619.5,522C 613.373,526.294 607.706,531.127 602.5,536.5C 607.902,528.806 614.569,522.472 622.5,517.5 Z"/></g>
<g><path style="opacity:0.98" fill="#c5c5c5" d="M 600.5,527.5 C 598.833,531.167 596.167,533.833 592.5,535.5C 594.833,532.5 597.5,529.833 600.5,527.5 Z"/></g>
<g><path style="opacity:0.243" fill="#959595" d="M 602.5,536.5 C 601.089,538.914 599.089,540.581 596.5,541.5C 597.911,539.086 599.911,537.419 602.5,536.5 Z"/></g>
<g><path style="opacity:0.949" fill="#b1b1b1" d="M 591.5,536.5 C 590.311,540.36 587.977,543.36 584.5,545.5C 584.5,545.167 584.5,544.833 584.5,544.5C 586.921,541.756 589.255,539.09 591.5,536.5 Z"/></g>
<g><path style="opacity:0.475" fill="#8d8d8d" d="M 584.5,544.5 C 584.5,544.833 584.5,545.167 584.5,545.5C 581.833,547.833 579.167,550.167 576.5,552.5C 578.167,548.833 580.833,546.167 584.5,544.5 Z"/></g>
<g><path style="opacity:0.149" fill="#969696" d="M 589.5,547.5 C 587.5,551.5 584.5,554.5 580.5,556.5C 583.167,553.167 586.167,550.167 589.5,547.5 Z"/></g>
<g><path style="opacity:0.008" fill="#979797" d="M 580.5,556.5 C 580.5,557.833 579.833,558.5 578.5,558.5C 578.833,557.5 579.5,556.833 580.5,556.5 Z"/></g>
<g><path style="opacity:0.941" fill="#a7a7a7" d="M 576.5,552.5 C 570.704,560.487 564.204,568.154 557,575.5C 556.308,576.437 556.475,577.103 557.5,577.5C 557.5,577.833 557.5,578.167 557.5,578.5C 556.167,580.5 554.5,582.167 552.5,583.5C 552.511,581.983 553.177,580.816 554.5,580C 553.423,579.53 552.423,579.697 551.5,580.5C 552.475,578.807 553.808,577.307 555.5,576C 555.167,575.667 554.833,575.333 554.5,575C 562.063,567.605 569.397,560.105 576.5,552.5 Z"/></g>
<g><path style="opacity:0.114" fill="#909090" d="M 578.5,558.5 C 572.232,565.764 565.232,572.431 557.5,578.5C 557.5,578.167 557.5,577.833 557.5,577.5C 564.175,570.825 571.175,564.492 578.5,558.5 Z"/></g>
<g><path style="opacity:0.906" fill="#c7c7c7" d="M 552.5,583.5 C 550.5,585.167 548.5,586.833 546.5,588.5C 546.062,588.565 545.728,588.399 545.5,588C 547.141,586.871 548.141,585.371 548.5,583.5C 549.167,582.167 550.167,581.167 551.5,580.5C 552.423,579.697 553.423,579.53 554.5,580C 553.177,580.816 552.511,581.983 552.5,583.5 Z"/></g>
<g><path style="opacity:0.588" fill="#969696" d="M 548.5,583.5 C 548.141,585.371 547.141,586.871 545.5,588C 545.728,588.399 546.062,588.565 546.5,588.5C 545.522,591.325 543.522,592.658 540.5,592.5C 542.384,588.941 545.051,585.941 548.5,583.5 Z"/></g>
</svg>
